<svg width="20" height="19" viewBox="0 0 20 19" fill="none" xmlns="http://www.w3.org/2000/svg">
<path fill-rule="evenodd" clip-rule="evenodd" d="M9.81674 0.0194541C9.93758 -0.00648469 10.0624 -0.00648469 10.1833 0.0194541C10.3234 0.0495327 10.4473 0.122259 10.5295 0.170491C10.5377 0.175335 10.5456 0.179931 10.5529 0.184213L13.4306 1.85268C13.4384 1.85721 13.4467 1.86196 13.4554 1.86694C13.5434 1.91739 13.6726 1.99143 13.7717 2.1036C13.8561 2.19916 13.9188 2.31107 13.9569 2.43135C14.001 2.57087 14.0004 2.71802 13.9999 2.82316C13.9999 2.83348 13.9998 2.8434 13.9998 2.85287V6.14713C13.9998 6.1566 13.9999 6.16652 13.9999 6.17684C14.0004 6.28198 14.001 6.42913 13.9569 6.56865C13.9188 6.68893 13.8561 6.80084 13.7717 6.8964C13.6726 7.00857 13.5434 7.08261 13.4554 7.13306C13.4467 7.13804 13.4384 7.14279 13.4306 7.14732L10.5529 8.81579C10.5456 8.82007 10.5377 8.82467 10.5295 8.82951C10.4473 8.87774 10.3234 8.95047 10.1833 8.98055C10.0624 9.00648 9.93758 9.00648 9.81674 8.98055C9.67661 8.95047 9.55271 8.87774 9.47053 8.82951C9.46228 8.82467 9.45445 8.82007 9.44706 8.81579L6.56942 7.14732C6.5616 7.14279 6.55331 7.13804 6.54462 7.13306C6.45658 7.08261 6.32735 7.00857 6.2283 6.8964C6.14393 6.80084 6.08122 6.68893 6.04314 6.56865C5.99897 6.42913 5.99963 6.28198 6.0001 6.17684C6.00015 6.16652 6.00019 6.1566 6.00019 6.14713V2.85287C6.00019 2.8434 6.00015 2.83348 6.0001 2.82316C5.99963 2.71802 5.99897 2.57087 6.04314 2.43135C6.08122 2.31107 6.14393 2.19916 6.2283 2.1036C6.32735 1.99143 6.45658 1.91739 6.54462 1.86694C6.55331 1.86196 6.5616 1.85721 6.56942 1.85268L9.44706 0.184213C9.45445 0.179931 9.46228 0.175335 9.47053 0.170491C9.5527 0.122259 9.67661 0.0495327 9.81674 0.0194541ZM10 1.01964C9.98539 1.02801 9.96875 1.03765 9.94861 1.04933L7.49699 2.47079L9.99999 3.92203L12.503 2.47078L10.0514 1.04933C10.0313 1.03765 10.0146 1.02801 10 1.01964ZM12.9999 3.33861V6.14713C12.9999 6.18271 12.9998 6.21006 12.9996 6.23369C12.9996 6.23624 12.9995 6.2387 12.9995 6.24106C12.9804 6.2524 12.9582 6.26531 12.929 6.28221L10.5 7.69058L10.5 4.78806L12.9999 3.33861ZM9.50001 4.78806L7.00014 3.33863V6.14713C7.00014 6.18271 7.00015 6.21006 7.00042 6.23369C7.00045 6.23624 7.00048 6.2387 7.00051 6.24105C7.01957 6.2524 7.04184 6.26531 7.07097 6.28221L9.50002 7.69058L9.50001 4.78806Z" fill="#A1ABB1"/>
<path fill-rule="evenodd" clip-rule="evenodd" d="M15.8167 10.0173C15.9376 9.99424 16.0624 9.99424 16.1833 10.0173C16.3234 10.044 16.4473 10.1087 16.5295 10.1515C16.5377 10.1559 16.5456 10.1599 16.5529 10.1637L19.4306 11.6468C19.4384 11.6509 19.4467 11.6551 19.4554 11.6595C19.5434 11.7043 19.6726 11.7702 19.7717 11.8699C19.8561 11.9548 19.9188 12.0543 19.9569 12.1612C20.001 12.2852 20.0004 12.416 19.9999 12.5095C19.9999 12.5187 19.9998 12.5275 19.9998 12.5359V15.4641C19.9998 15.4725 19.9999 15.4813 19.9999 15.4905C20.0004 15.584 20.001 15.7148 19.9569 15.8388C19.9188 15.9457 19.8561 16.0452 19.7717 16.1301C19.6726 16.2298 19.5434 16.2957 19.4554 16.3405C19.4467 16.3449 19.4384 16.3491 19.4306 16.3532L16.5529 17.8363C16.5456 17.8401 16.5377 17.8441 16.5295 17.8485C16.4473 17.8913 16.3234 17.956 16.1833 17.9827C16.0624 18.0058 15.9376 18.0058 15.8167 17.9827C15.6766 17.956 15.5527 17.8913 15.4705 17.8485C15.4623 17.8441 15.4544 17.8401 15.4471 17.8363L12.5694 16.3532C12.5616 16.3491 12.5533 16.3449 12.5446 16.3405C12.4566 16.2957 12.3274 16.2298 12.2283 16.1301C12.1439 16.0452 12.0812 15.9457 12.0431 15.8388C11.999 15.7148 11.9996 15.584 12.0001 15.4905C12.0001 15.4813 12.0002 15.4725 12.0002 15.4641V12.5359C12.0002 12.5275 12.0001 12.5187 12.0001 12.5095C11.9996 12.416 11.999 12.2852 12.0431 12.1612C12.0812 12.0543 12.1439 11.9548 12.2283 11.8699C12.3274 11.7702 12.4566 11.7043 12.5446 11.6595C12.5533 11.6551 12.5616 11.6509 12.5694 11.6468L15.4471 10.1637C15.4544 10.1599 15.4623 10.1559 15.4705 10.1515C15.5527 10.1087 15.6766 10.044 15.8167 10.0173ZM16 10.9063C15.9854 10.9138 15.9687 10.9224 15.9486 10.9327L13.497 12.1963L16 13.4862L18.503 12.1962L16.0514 10.9327C16.0313 10.9224 16.0146 10.9138 16 10.9063ZM18.9999 12.9677V15.4641C18.9999 15.4957 18.9998 15.5201 18.9996 15.5411C18.9996 15.5433 18.9995 15.5455 18.9995 15.5476C18.9804 15.5577 18.9582 15.5692 18.929 15.5842L16.5 16.8361L16.5 14.2561L18.9999 12.9677ZM15.5 14.2561L13.0001 12.9677V15.4641C13.0001 15.4957 13.0002 15.5201 13.0004 15.5411C13.0004 15.5433 13.0005 15.5455 13.0005 15.5476C13.0196 15.5577 13.0418 15.5692 13.071 15.5842L15.5 16.8361L15.5 14.2561Z" fill="#A1ABB1"/>
<path fill-rule="evenodd" clip-rule="evenodd" d="M3.81674 10.0173C3.93759 9.99424 4.06242 9.99424 4.18326 10.0173C4.32339 10.044 4.4473 10.1087 4.52947 10.1515C4.53772 10.1559 4.54555 10.1599 4.55294 10.1637L7.43058 11.6468C7.4384 11.6509 7.44669 11.6551 7.45538 11.6595C7.54342 11.7043 7.67265 11.7702 7.7717 11.8699C7.85607 11.9548 7.91878 12.0543 7.95686 12.1612C8.00103 12.2852 8.00037 12.416 7.9999 12.5095C7.99985 12.5187 7.99981 12.5275 7.99981 12.5359V15.4641C7.99981 15.4725 7.99985 15.4813 7.9999 15.4905C8.00037 15.584 8.00103 15.7148 7.95686 15.8388C7.91878 15.9457 7.85607 16.0452 7.7717 16.1301C7.67265 16.2298 7.54342 16.2957 7.45538 16.3405C7.44669 16.3449 7.4384 16.3491 7.43058 16.3532L4.55294 17.8363C4.54555 17.8401 4.53772 17.8441 4.52947 17.8485C4.44729 17.8913 4.32339 17.956 4.18326 17.9827C4.06242 18.0058 3.93759 18.0058 3.81674 17.9827C3.67661 17.956 3.5527 17.8913 3.47053 17.8485C3.46228 17.8441 3.45445 17.8401 3.44706 17.8363L0.569424 16.3532C0.561604 16.3491 0.553315 16.3449 0.544623 16.3405C0.456584 16.2957 0.327352 16.2298 0.228304 16.1301C0.14393 16.0452 0.0812222 15.9457 0.0431437 15.8388C-0.0010274 15.7148 -0.000368438 15.584 0.000102476 15.4905C0.000148727 15.4813 0.00019313 15.4725 0.00019313 15.4641V12.5359C0.00019313 12.5275 0.000148727 12.5187 0.000102476 12.5095C-0.000368438 12.416 -0.0010274 12.2852 0.0431437 12.1612C0.0812219 12.0543 0.14393 11.9548 0.228304 11.8699C0.327351 11.7702 0.456582 11.7043 0.544621 11.6595C0.553313 11.6551 0.561603 11.6509 0.569424 11.6468L3.44706 10.1637C3.45445 10.1599 3.46228 10.1559 3.47053 10.1515C3.5527 10.1087 3.67661 10.044 3.81674 10.0173ZM4 10.9063C3.98539 10.9138 3.96875 10.9224 3.94861 10.9327L1.49699 12.1963L3.99999 13.4862L6.503 12.1962L4.05139 10.9327C4.03126 10.9224 4.01461 10.9138 4 10.9063ZM6.99986 12.9677V15.4641C6.99986 15.4957 6.99985 15.5201 6.99958 15.5411C6.99955 15.5433 6.99952 15.5455 6.99949 15.5476C6.98043 15.5577 6.95816 15.5692 6.92903 15.5842L4.49997 16.8361L4.49996 14.2561L6.99986 12.9677ZM3.50001 14.2561L1.00014 12.9677V15.4641C1.00014 15.4957 1.00015 15.5201 1.00042 15.5411C1.00045 15.5433 1.00048 15.5455 1.00051 15.5476C1.01957 15.5577 1.04184 15.5692 1.07097 15.5842L3.50002 16.8361L3.50001 14.2561Z" fill="#A1ABB1"/>
<path d="M6.73328 5.00012L3.83011 6.66494L3.78918 6.68834C3.61312 6.78888 3.44008 6.88769 3.30906 7.03443C3.19529 7.16187 3.11027 7.31166 3.05851 7.47334C2.99939 7.65805 2.99971 7.85608 3.00005 8.06469L3.0001 8.11226V10.2302H3.93342V8.11226C3.93342 7.82489 3.93861 7.78227 3.9483 7.75197C3.9614 7.71108 3.98237 7.67493 4.00866 7.64547C4.02583 7.62624 4.05332 7.60401 4.29823 7.46357L6.73328 6.06719V5.00012Z" fill="#A1ABB1"/>
<path d="M13.2665 6.06707L15.7018 7.46356C15.9467 7.60401 15.9742 7.62624 15.9913 7.64547C16.0176 7.67492 16.0386 7.71107 16.0517 7.75197C16.0614 7.78227 16.0666 7.82489 16.0666 8.11226V10.2302H16.9999V8.11226L16.9999 8.0647C17.0003 7.85608 17.0006 7.65804 16.9415 7.47334C16.8897 7.31166 16.8047 7.16187 16.6909 7.03443C16.5599 6.88768 16.3869 6.78888 16.2108 6.68834L16.1699 6.66494L13.2665 5V6.06707Z" fill="#A1ABB1"/>
<path d="M13.2822 16.2306L14.6666 16.4614L10.7981 18.7222L10.7586 18.7449C10.5934 18.84 10.428 18.9353 10.2442 18.9744C10.0831 19.0085 9.91687 19.0085 9.75583 18.9744C9.57205 18.9353 9.40661 18.84 9.24141 18.7449L9.20188 18.7222L5.25 16.4614L6.26673 15.9998L9.67001 17.9235C9.90329 18.0573 9.93211 18.0676 9.95169 18.0718C9.98362 18.0786 10.0164 18.0786 10.0483 18.0718C10.0679 18.0676 10.0967 18.0573 10.33 17.9235L13.2822 16.2306Z" fill="#A1ABB1"/>
</svg>
