<svg version="1.2" xmlns="http://www.w3.org/2000/svg" viewBox="0 0 24 24" width="24" height="24">
	<title>CO-Black-svg</title>
	<style>
		.s0 { fill: #191937 } 
	</style>
	<path id="Layer" class="s0" d="m4.4 9.5l-2.3-2.4c-1.4 1.3-2.1 3.1-2.1 5 0 1.9 0.7 3.7 2.1 5.1l2.3-2.5c-0.6-0.7-1-1.6-1-2.6 0-0.9 0.4-1.9 1-2.6zm-2.3-2.4l2.3 2.4q0.5-0.5 1.2-0.8 0.7-0.3 1.4-0.3 0.7 0 1.4 0.3 0.7 0.3 1.2 0.8l1.7-3-0.1-0.1c-1.3-1-3-1.5-4.7-1.4-1.7 0.2-3.3 0.9-4.4 2.1zm9.2 10.6l-1.7-3q-0.5 0.6-1.2 0.8-0.7 0.3-1.4 0.3-0.7 0-1.4-0.3-0.7-0.2-1.2-0.8l-2.3 2.5c1.1 1.2 2.7 1.9 4.4 2 1.7 0.1 3.3-0.3 4.7-1.4l0.1-0.1m0.7-10.6c-1.3 1.3-2.1 3.1-2.1 5 0 1.9 0.8 3.7 2.1 5.1l2.4-2.5c-0.7-0.7-1.1-1.6-1.1-2.6 0-1 0.4-1.9 1.1-2.6 0.7-0.7 1.6-1.1 2.6-1.1 0.9 0 1.9 0.4 2.5 1.1l2.4-2.4q-0.9-1-2.2-1.6-1.3-0.5-2.7-0.5-1.4 0-2.7 0.5-1.3 0.6-2.3 1.6zm9.9 0l-2.3 2.4c0.6 0.7 1 1.7 1 2.6 0 1-0.4 2-1 2.6-0.7 0.7-1.6 1.1-2.6 1.1-1 0-1.9-0.4-2.6-1.1l-2.4 2.5c1.3 1.3 3.1 2.1 5 2.1q1.4 0 2.7-0.6 1.2-0.5 2.2-1.5 1-1 1.6-2.3 0.5-1.3 0.5-2.8 0-1.4-0.5-2.7-0.6-1.3-1.6-2.3z"/>
</svg>