<svg width="24" height="24" viewBox="0 0 24 24" fill="none" xmlns="http://www.w3.org/2000/svg">
<path d="M4.43499 9.5191L2.0525 7.09219C0.738154 8.42823 0 10.2386 0 12.126C0 14.0134 0.738154 15.8237 2.0525 17.1598L4.44513 14.7328C3.76339 14.0422 3.37949 13.1055 3.37759 12.1281C3.37569 11.1507 3.75595 10.2125 4.43499 9.5191Z" fill="black"/>
<path d="M2.05249 7.0922L4.43498 9.51911C4.77301 9.17584 5.17443 8.90352 5.61629 8.71772C6.05815 8.53192 6.53178 8.43628 7.0101 8.43628C7.48842 8.43628 7.96206 8.53192 8.40392 8.71772C8.84577 8.90352 9.24719 9.17584 9.58522 9.51911L11.3189 6.50604L11.2175 6.42377C9.86523 5.40046 8.1951 4.90488 6.51232 5.02761C4.82955 5.15034 3.2465 5.88318 2.05249 7.0922Z" fill="black"/>
<path d="M11.329 17.7459L9.58522 14.7431C9.24719 15.0864 8.84577 15.3587 8.40392 15.5445C7.96206 15.7303 7.48842 15.826 7.0101 15.826C6.53178 15.826 6.05815 15.7303 5.61629 15.5445C5.17443 15.3587 4.77301 15.0864 4.43498 14.7431L2.05249 17.17C3.24412 18.3683 4.81918 19.0944 6.49276 19.217C8.16634 19.3396 9.82792 18.8506 11.1769 17.8385L11.2885 17.7459" fill="black"/>
<path d="M11.9981 7.09219C10.6838 8.42822 9.94562 10.2386 9.94562 12.126C9.94562 14.0134 10.6838 15.8237 11.9981 17.1598L14.3907 14.7328C13.7078 14.0401 13.3241 13.1005 13.3241 12.1208C13.3241 11.1411 13.7078 10.2016 14.3907 9.50881C15.0737 8.81606 16 8.42688 16.9659 8.42688C17.9317 8.42688 18.858 8.81606 19.541 9.50881L21.9438 7.09219C21.2912 6.42897 20.516 5.9028 19.6627 5.54379C18.8094 5.18479 17.8947 5 16.9709 5C16.0471 5 15.1324 5.18479 14.2791 5.54379C13.4258 5.9028 12.6507 6.42897 11.9981 7.09219Z" fill="black"/>
<path d="M21.9437 7.09219L19.5613 9.5191C20.2442 10.2119 20.6279 11.1514 20.6279 12.1311C20.6279 13.1108 20.2442 14.0504 19.5613 14.7431C18.8783 15.4359 17.952 15.8251 16.9861 15.8251C16.0203 15.8251 15.094 15.4359 14.411 14.7431L11.9981 17.17C13.3156 18.5078 15.1031 19.2599 16.9673 19.2609C17.8904 19.2613 18.8045 19.0774 19.6575 18.7195C20.5105 18.3617 21.2856 17.8369 21.9387 17.1752C22.5917 16.5135 23.1099 15.7278 23.4635 14.8629C23.8172 13.9981 23.9995 13.071 24 12.1348C24.0004 11.1985 23.8191 10.2712 23.4663 9.40604C23.1135 8.54084 22.5961 7.75459 21.9437 7.09219Z" fill="black"/>
</svg>
