<svg width="32" height="32" viewBox="0 0 32 32" fill="none" xmlns="http://www.w3.org/2000/svg">
<g clip-path="url(#clip0_587_53445)">
<path d="M13.5 16C13.5 14.6193 14.6193 13.5 16 13.5C17.3807 13.5 18.5 14.6193 18.5 16C18.5 17.3807 17.3807 18.5 16 18.5C14.6193 18.5 13.5 17.3807 13.5 16Z" fill="#C6D300"/>
<path fill-rule="evenodd" clip-rule="evenodd" d="M10.5 10C10.5 9.64794 10.4543 9.30567 10.3683 8.97927C11.1261 8.37057 11.9839 7.8824 12.9127 7.54322C13.6455 8.43186 14.7559 9 16 9C17.2441 9 18.3545 8.43186 19.0873 7.54322C20.0161 7.8824 20.8739 8.37057 21.6317 8.97927C21.5457 9.30567 21.5 9.64794 21.5 10C21.5 11.9568 22.9052 13.5855 24.7615 13.932C24.9174 14.5952 25 15.2874 25 16C25 16.3516 24.9799 16.6982 24.9408 17.0388C22.9964 17.3108 21.5 18.9806 21.5 21C21.5 21.6393 21.6505 22.2445 21.9177 22.7811C21.1677 23.4362 20.3086 23.9686 19.3717 24.3474C18.6614 23.237 17.4176 22.5 16 22.5C14.5824 22.5 13.3386 23.237 12.6283 24.3474C11.6914 23.9686 10.8323 23.4362 10.0823 22.7811C10.3495 22.2445 10.5 21.6393 10.5 21C10.5 18.9806 9.00362 17.3108 7.05921 17.0388C7.02012 16.6982 7 16.3516 7 16C7 15.2874 7.08262 14.5952 7.2385 13.932C9.09485 13.5855 10.5 11.9568 10.5 10ZM16 11.5C13.5147 11.5 11.5 13.5147 11.5 16C11.5 18.4853 13.5147 20.5 16 20.5C18.4853 20.5 20.5 18.4853 20.5 16C20.5 13.5147 18.4853 11.5 16 11.5Z" fill="#C6D300"/>
<path fill-rule="evenodd" clip-rule="evenodd" d="M4 0C1.79086 0 0 1.79086 0 4V28C0 30.2091 1.79086 32 4 32H28C30.2091 32 32 30.2091 32 28V4C32 1.79086 30.2091 0 28 0H4ZM14.2168 5.90707C14.0009 5.48389 13.5171 5.27101 13.0593 5.39775C11.3353 5.87498 9.78257 6.76064 8.51135 7.94266C8.18782 8.24349 8.10003 8.72098 8.29539 9.11721C8.42608 9.38228 8.5 9.68109 8.5 10C8.5 11.1046 7.60457 12 6.5 12L6.47217 11.9998C6.0301 11.9935 5.63635 12.2782 5.50385 12.7C5.17624 13.743 5 14.8519 5 16C5 16.7577 5.07677 17.4986 5.22328 18.2149C5.32592 18.7167 5.79108 19.0598 6.30078 19.0097C6.36594 19.0033 6.43238 19 6.5 19C7.60457 19 8.5 19.8954 8.5 21C8.5 21.4919 8.32369 21.9401 8.02964 22.2886C7.69934 22.68 7.71823 23.2578 8.0734 23.6269C9.37142 24.9757 11.0118 25.9948 12.8566 26.544C13.3784 26.6994 13.9286 26.4087 14.0944 25.8901C14.3525 25.0826 15.1095 24.5 16 24.5C16.8905 24.5 17.6475 25.0826 17.9056 25.8901C18.0714 26.4087 18.6216 26.6994 19.1434 26.544C20.9882 25.9948 22.6286 24.9757 23.9266 23.6269C24.2818 23.2578 24.3006 22.6801 23.9704 22.2886C23.6763 21.9401 23.5 21.4919 23.5 21C23.5 19.8954 24.3954 19 25.5 19C25.5676 19 25.6341 19.0033 25.6992 19.0097C26.2089 19.0598 26.6741 18.7167 26.7767 18.2149C26.9232 17.4986 27 16.7577 27 16C27 14.8519 26.8237 13.743 26.4961 12.7C26.3637 12.2782 25.9699 11.9935 25.5278 11.9998L25.5 12C24.3954 12 23.5 11.1046 23.5 10C23.5 9.68109 23.5739 9.38228 23.7046 9.11721C23.9 8.72098 23.8122 8.24349 23.4886 7.94266C22.2174 6.76064 20.6647 5.87498 18.9407 5.39775C18.4829 5.27101 17.9991 5.48389 17.7832 5.90707C17.4512 6.55787 16.7763 7 16 7C15.2237 7 14.5488 6.55787 14.2168 5.90707Z" fill="#C6D300"/>
</g>
<defs>
<clipPath id="clip0_587_53445">
<rect width="32" height="32" rx="4" fill="white"/>
</clipPath>
</defs>
</svg>
