<svg width="32" height="32" viewBox="0 0 32 32" fill="none" xmlns="http://www.w3.org/2000/svg">
<path fill-rule="evenodd" clip-rule="evenodd" d="M13.0593 5.39769C13.5171 5.27095 14.0009 5.48383 14.2168 5.907C14.5488 6.55781 15.2237 6.99994 16 6.99994C16.7763 6.99994 17.4512 6.55781 17.7832 5.907C17.9991 5.48383 18.4829 5.27095 18.9407 5.39769C20.6647 5.87491 22.2174 6.76058 23.4886 7.9426C23.8122 8.24343 23.9 8.72091 23.7046 9.11715C23.5739 9.38222 23.5 9.68103 23.5 9.99994C23.5 11.1045 24.3954 11.9999 25.5 11.9999L25.5278 11.9997C25.9699 11.9934 26.3637 12.2782 26.4961 12.7C26.8237 13.743 27 14.8518 27 15.9999C27 16.7577 26.9232 17.4986 26.7767 18.2148C26.6741 18.7166 26.2089 19.0597 25.6992 19.0096C25.6341 19.0032 25.5676 18.9999 25.5 18.9999C24.3954 18.9999 23.5 19.8954 23.5 20.9999C23.5 21.4919 23.6763 21.94 23.9704 22.2885C24.3006 22.68 24.2818 23.2577 23.9266 23.6268C22.6286 24.9756 20.9882 25.9947 19.1434 26.544C18.6216 26.6993 18.0714 26.4086 17.9056 25.89C17.6475 25.0826 16.8905 24.4999 16 24.4999C15.1095 24.4999 14.3525 25.0826 14.0944 25.89C13.9286 26.4086 13.3784 26.6993 12.8566 26.544C11.0118 25.9947 9.37142 24.9756 8.0734 23.6268C7.71823 23.2577 7.69934 22.68 8.02964 22.2885C8.32369 21.94 8.5 21.4919 8.5 20.9999C8.5 19.8954 7.60457 18.9999 6.5 18.9999C6.43238 18.9999 6.36594 19.0032 6.30078 19.0096C5.79108 19.0597 5.32592 18.7166 5.22328 18.2148C5.07677 17.4986 5 16.7577 5 15.9999C5 14.8518 5.17624 13.743 5.50385 12.7C5.63635 12.2782 6.0301 11.9934 6.47217 11.9997L6.5 11.9999C7.60457 11.9999 8.5 11.1045 8.5 9.99994C8.5 9.68103 8.42608 9.38222 8.29539 9.11715C8.10003 8.72091 8.18782 8.24343 8.51135 7.9426C9.78257 6.76058 11.3353 5.87491 13.0593 5.39769ZM10.3683 8.9792C10.4543 9.30561 10.5 9.64788 10.5 9.99994C10.5 11.9568 9.09485 13.5854 7.2385 13.9319C7.08262 14.5951 7 15.2874 7 15.9999C7 16.3516 7.02012 16.6982 7.05921 17.0387C9.00362 17.3107 10.5 18.9806 10.5 20.9999C10.5 21.6392 10.3495 22.2444 10.0823 22.781C10.8323 23.4362 11.6914 23.9685 12.6283 24.3474C13.3386 23.2369 14.5824 22.4999 16 22.4999C17.4176 22.4999 18.6614 23.2369 19.3717 24.3474C20.3086 23.9685 21.1677 23.4362 21.9177 22.781C21.6505 22.2444 21.5 21.6392 21.5 20.9999C21.5 18.9806 22.9964 17.3107 24.9408 17.0387C24.9799 16.6982 25 16.3516 25 15.9999C25 15.2874 24.9174 14.5951 24.7615 13.9319C22.9052 13.5854 21.5 11.9568 21.5 9.99994C21.5 9.64788 21.5457 9.30561 21.6317 8.9792C20.8739 8.3705 20.0161 7.88233 19.0873 7.54315C18.3545 8.4318 17.2441 8.99994 16 8.99994C14.7559 8.99994 13.6455 8.4318 12.9127 7.54315C11.9839 7.88233 11.1261 8.3705 10.3683 8.9792ZM11.5 15.9999C11.5 13.5147 13.5147 11.4999 16 11.4999C18.4853 11.4999 20.5 13.5147 20.5 15.9999C20.5 18.4852 18.4853 20.4999 16 20.4999C13.5147 20.4999 11.5 18.4852 11.5 15.9999ZM16 13.4999C14.6193 13.4999 13.5 14.6192 13.5 15.9999C13.5 17.3807 14.6193 18.4999 16 18.4999C17.3807 18.4999 18.5 17.3807 18.5 15.9999C18.5 14.6192 17.3807 13.4999 16 13.4999Z" fill="#C6D300"/>
</svg>
