<svg width="32" height="32" viewBox="0 0 32 32" fill="none" xmlns="http://www.w3.org/2000/svg">
<g clip-path="url(#clip0_587_53455)">
<path d="M14 13.5C14 12.3954 14.8954 11.5 16 11.5C17.1046 11.5 18 12.3954 18 13.5C18 14.6046 17.1046 15.5 16 15.5C14.8954 15.5 14 14.6046 14 13.5Z" fill="#C6D300"/>
<path fill-rule="evenodd" clip-rule="evenodd" d="M9.5 13.5C9.5 9.91014 12.4101 7 16 7C19.5899 7 22.5 9.91014 22.5 13.5C22.5 15.9562 21.2972 18.5917 19.2432 21.2187C18.4849 22.1885 17.6554 23.0981 16.8053 23.9268L16.4025 24.3121L16 24.681C15.863 24.5612 15.7301 24.4366 15.5975 24.3121L15.1947 23.9268C14.3446 23.0981 13.5151 22.1885 12.7568 21.2187C10.7028 18.5917 9.5 15.9562 9.5 13.5ZM20 13.5C20 11.2909 18.2091 9.5 16 9.5C13.7909 9.5 12 11.2909 12 13.5C12 15.7091 13.7909 17.5 16 17.5C18.2091 17.5 20 15.7091 20 13.5Z" fill="#C6D300"/>
<path fill-rule="evenodd" clip-rule="evenodd" d="M4 0C1.79086 0 0 1.79086 0 4V28C0 30.2091 1.79086 32 4 32H28C30.2091 32 32 30.2091 32 28V4C32 1.79086 30.2091 0 28 0H4ZM24.5 13.5C24.5 8.80556 20.6944 5 16 5C11.3056 5 7.5 8.80556 7.5 13.5C7.5 16.4856 8.8778 19.5046 11.1812 22.4506C11.9987 23.4961 12.8878 24.471 13.7986 25.3589L14.0199 25.5726L14.4377 25.9645L14.8185 26.3077L15.1577 26.6007L15.3753 26.7809C15.7432 27.0752 16.2665 27.0728 16.6317 26.7752L16.8398 26.6027L17.1806 26.3085L17.5621 25.9646L17.9801 25.5726C18.0525 25.5033 18.1263 25.4321 18.2014 25.3589C19.1122 24.471 20.0013 23.4961 20.8188 22.4506C23.1222 19.5046 24.5 16.4856 24.5 13.5Z" fill="#C6D300"/>
</g>
<defs>
<clipPath id="clip0_587_53455">
<rect width="32" height="32" rx="4" fill="white"/>
</clipPath>
</defs>
</svg>
