<svg width="32" height="32" viewBox="0 0 32 32" fill="none" xmlns="http://www.w3.org/2000/svg">
<path d="M16 5C20.6944 5 24.5 8.80557 24.5 13.5C24.5 16.4856 23.1222 19.5046 20.8188 22.4506C20.0013 23.4961 19.1122 24.471 18.2014 25.3589C18.1263 25.4321 18.0525 25.5033 17.9801 25.5726L17.5621 25.9646L17.1806 26.3085L16.8398 26.6027L16.6317 26.7752C16.2665 27.0728 15.7432 27.0752 15.3753 26.7809L15.1577 26.6007L14.8185 26.3077L14.4377 25.9645L14.0199 25.5726L13.7986 25.3589C12.8878 24.471 11.9987 23.4961 11.1812 22.4506C8.8778 19.5046 7.5 16.4856 7.5 13.5C7.5 8.80557 11.3056 5 16 5ZM16 7C12.4101 7 9.5 9.91013 9.5 13.5C9.5 15.9562 10.7028 18.5917 12.7568 21.2187C13.5151 22.1885 14.3446 23.0981 15.1947 23.9268L15.5975 24.3121C15.7301 24.4366 15.863 24.5612 16 24.681L16.4025 24.3121L16.8053 23.9268C17.6554 23.0981 18.4849 22.1885 19.2432 21.2187C21.2972 18.5917 22.5 15.9562 22.5 13.5C22.5 9.91013 19.5899 7 16 7ZM16 9.5C18.2091 9.5 20 11.2909 20 13.5C20 15.7091 18.2091 17.5 16 17.5C13.7909 17.5 12 15.7091 12 13.5C12 11.2909 13.7909 9.5 16 9.5ZM16 11.5C14.8954 11.5 14 12.3954 14 13.5C14 14.6046 14.8954 15.5 16 15.5C17.1046 15.5 18 14.6046 18 13.5C18 12.3954 17.1046 11.5 16 11.5Z" fill="#C6D300"/>
</svg>
