<svg width="1920" height="1080" viewBox="0 0 1920 1080" fill="none" xmlns="http://www.w3.org/2000/svg">
<rect width="1920" height="1080" fill="#181937"/>
<g clip-path="url(#clip0_5_49775)">
<path d="M856.96 626.286H822.228V661H856.96V626.286Z" fill="#C6D300"/>
<path d="M822.228 452.714V418H787.495V452.714V487.429V522.143V556.857V591.572V626.286H822.228V591.572V556.857V522.143H856.961V487.429H822.228V452.714Z" fill="#59C1D5"/>
<path d="M719.347 452.714V487.429V522.143V556.857V591.572V626.286V661H754.079V626.286V591.572V556.857V522.143V487.429V452.714V418H719.347V452.714Z" fill="#59C1D5"/>
<path d="M651.198 452.714V487.429H616.466H581.733V522.143H616.466H651.198V556.857V591.572V626.286H616.466H581.733V661H616.466H651.198H685.931V626.286V591.572V556.857V522.143V487.429V452.714V418H651.198V452.714Z" fill="#59C1D5"/>
<path d="M581.733 556.857V522.143H547V556.857V591.572V626.286H581.733V591.572V556.857Z" fill="#59C1D5"/>
<path d="M994.574 522.143H925.109V418H890.376V661H925.109V556.857H994.574V661H1029.31V418H994.574V522.143Z" fill="#C6D300"/>
<path d="M1097.46 487.429H1062.72V626.286H1097.46V487.429Z" fill="#C6D300"/>
<path d="M1166.92 626.286H1097.46V661H1201.65V487.429H1166.92V626.286Z" fill="#C6D300"/>
<path d="M1269.8 522.143H1339.27V487.429H1269.8V418H1235.07V661H1339.27V626.286H1269.8V522.143Z" fill="#C6D300"/>
<path d="M1374 522.143H1339.27V626.286H1374V522.143Z" fill="#C6D300"/>
</g>
<defs>
<clipPath id="clip0_5_49775">
<rect width="827" height="243" fill="white" transform="translate(547 418)"/>
</clipPath>
</defs>
</svg>
