<svg id="svg" version="1.1" xmlns="http://www.w3.org/2000/svg" xmlns:xlink="http://www.w3.org/1999/xlink" width="400" height="403.06122448979596" viewBox="0, 0, 400,403.06122448979596"><g id="svgg"><path id="path0" d="M151.160 106.100 C 151.138 125.955,150.995 142.650,150.842 143.200 L 150.564 144.200 113.582 144.400 L 76.600 144.600 76.600 162.600 L 76.600 180.600 113.362 180.702 C 139.715 180.775,150.276 180.931,150.662 181.251 C 151.330 181.806,151.475 290.424,150.810 292.174 L 150.420 293.200 113.910 293.206 C 93.829 293.209,77.173 293.356,76.896 293.532 C 76.500 293.784,76.414 297.673,76.496 311.626 L 76.600 329.400 131.900 329.501 L 187.200 329.603 187.200 199.801 L 187.200 70.000 169.200 70.000 L 151.200 70.000 151.160 106.100 M224.499 70.328 C 224.100 70.583,224.019 96.788,224.099 200.024 L 224.200 329.400 242.301 329.504 L 260.401 329.608 260.301 199.904 L 260.200 70.200 242.600 70.104 C 232.920 70.051,224.775 70.152,224.499 70.328 M299.026 70.357 C 298.905 70.554,298.802 120.549,298.797 181.457 L 298.789 292.200 316.794 292.304 C 326.697 292.361,334.843 292.361,334.896 292.304 C 334.950 292.247,335.085 267.180,335.196 236.600 L 335.400 181.000 353.800 180.800 L 372.200 180.600 372.200 162.600 L 372.200 144.600 354.236 144.496 C 341.784 144.424,336.107 144.255,335.736 143.947 C 335.295 143.581,335.200 137.019,335.200 106.994 C 335.200 74.072,335.138 70.462,334.567 70.243 C 333.548 69.852,299.271 69.962,299.026 70.357 M39.103 236.620 C 39.039 270.981,39.143 291.783,39.380 292.020 C 40.113 292.753,75.073 292.508,75.357 291.767 C 75.675 290.940,75.675 183.060,75.357 182.233 C 75.141 181.669,73.163 181.600,57.160 181.600 L 39.206 181.600 39.103 236.620 " stroke="none" fill="#53c1d2" fill-rule="evenodd"></path><path id="path1" d="M0.000 201.400 L 0.000 402.800 200.000 402.800 L 400.000 402.800 400.000 201.400 L 400.000 0.000 200.000 0.000 L 0.000 0.000 0.000 201.400 M187.986 69.974 C 188.756 71.413,188.544 329.399,187.771 330.171 C 186.662 331.281,77.113 331.113,76.000 330.000 C 75.224 329.224,75.200 328.667,75.200 311.400 L 75.200 293.600 57.400 293.600 C 40.486 293.600,39.562 293.562,38.845 292.845 C 38.002 292.002,37.623 183.079,38.458 181.500 C 38.802 180.849,40.101 180.800,57.002 180.800 L 75.177 180.800 75.288 162.433 C 75.350 152.331,75.550 143.916,75.733 143.733 C 75.917 143.550,92.490 143.385,112.562 143.367 C 132.635 143.349,149.270 143.204,149.529 143.044 C 149.885 142.824,150.000 133.814,150.000 106.243 C 150.000 86.163,150.120 69.613,150.267 69.467 C 151.036 68.698,187.566 69.189,187.986 69.974 M260.800 69.592 C 261.331 69.927,261.412 84.897,261.507 199.685 L 261.614 329.400 260.763 330.100 C 259.621 331.039,224.424 331.193,223.651 330.262 C 223.182 329.696,222.951 70.327,223.419 69.570 C 223.728 69.070,260.009 69.091,260.800 69.592 M335.902 106.178 C 335.961 127.387,336.156 143.049,336.364 143.178 C 336.562 143.300,344.673 143.380,354.389 143.356 C 369.223 143.319,372.147 143.404,372.628 143.885 C 373.124 144.381,373.585 180.854,373.100 181.290 C 373.045 181.339,364.720 181.474,354.600 181.590 L 336.200 181.800 336.099 237.296 L 335.997 292.792 354.299 292.896 L 372.600 293.000 372.600 311.600 L 372.600 330.200 354.446 330.304 C 341.375 330.379,336.139 330.281,335.746 329.955 C 335.300 329.585,335.200 326.230,335.200 311.551 L 335.200 293.600 317.029 293.600 C 301.042 293.600,298.782 293.524,298.229 292.971 C 297.586 292.329,297.205 71.494,297.844 69.829 C 298.064 69.257,300.010 69.203,316.944 69.296 L 335.800 69.400 335.902 106.178 M76.747 181.900 C 76.559 182.966,76.626 291.718,76.814 292.023 C 76.961 292.261,90.712 292.366,113.425 292.302 L 149.800 292.200 149.901 237.443 C 149.976 197.307,149.883 182.540,149.552 182.143 C 149.054 181.542,76.853 181.301,76.747 181.900 " stroke="none" fill="#1b1c34" fill-rule="evenodd"></path><path id="path2" d="M335.783 293.700 C 335.678 293.975,335.638 302.210,335.696 312.000 L 335.800 329.800 353.974 329.904 C 368.248 329.986,372.216 329.900,372.468 329.504 C 372.837 328.922,372.923 294.785,372.557 293.833 C 372.232 292.984,336.108 292.854,335.783 293.700 " stroke="none" fill="#c2d205" fill-rule="evenodd"></path><path id="path3" d="M150.667 69.867 C 150.520 70.013,150.397 86.528,150.394 106.567 C 150.391 126.605,150.256 143.194,150.094 143.431 C 149.887 143.735,139.016 143.851,113.400 143.823 C 92.584 143.800,76.786 143.936,76.500 144.140 C 76.113 144.417,76.000 148.499,76.000 162.216 C 76.000 171.961,75.891 180.219,75.757 180.567 C 75.541 181.132,73.528 181.200,57.157 181.200 L 38.800 181.200 38.800 235.767 C 38.800 265.779,38.706 290.579,38.591 290.879 C 37.800 292.940,38.165 292.985,57.668 293.200 L 75.800 293.400 76.000 311.600 L 76.200 329.800 131.776 329.901 C 175.972 329.982,187.416 329.900,187.669 329.501 C 188.227 328.624,188.078 70.638,187.520 70.080 C 186.998 69.558,151.183 69.350,150.667 69.867 M223.785 70.100 C 223.681 70.375,223.641 128.920,223.698 200.200 L 223.800 329.800 242.304 329.800 L 260.807 329.800 260.802 200.022 C 260.797 96.893,260.694 70.180,260.298 69.929 C 259.403 69.360,224.003 69.526,223.785 70.100 M298.484 70.076 C 297.523 71.037,297.810 292.270,298.774 292.786 C 300.042 293.465,334.581 293.346,335.150 292.661 C 335.474 292.270,335.625 276.867,335.699 236.761 L 335.800 181.400 353.979 181.296 C 367.912 181.216,372.231 181.076,372.473 180.696 C 373.062 179.768,372.869 144.926,372.271 144.329 C 371.848 143.905,368.187 143.807,353.871 143.835 C 344.042 143.854,335.957 143.854,335.905 143.835 C 335.853 143.816,335.718 127.150,335.605 106.800 L 335.400 69.800 317.184 69.696 C 303.349 69.617,298.852 69.708,298.484 70.076 M187.200 199.801 L 187.200 329.603 131.900 329.501 L 76.600 329.400 76.496 311.626 C 76.414 297.673,76.500 293.784,76.896 293.532 C 77.173 293.356,93.829 293.209,113.910 293.206 L 150.420 293.200 150.810 292.174 C 151.475 290.424,151.330 181.806,150.662 181.251 C 150.276 180.931,139.715 180.775,113.362 180.702 L 76.600 180.600 76.600 162.600 L 76.600 144.600 113.582 144.400 L 150.564 144.200 150.842 143.200 C 150.995 142.650,151.138 125.955,151.160 106.100 L 151.200 70.000 169.200 70.000 L 187.200 70.000 187.200 199.801 M260.301 199.904 L 260.401 329.608 242.301 329.504 L 224.200 329.400 224.099 200.024 C 224.019 96.788,224.100 70.583,224.499 70.328 C 224.775 70.152,232.920 70.051,242.600 70.104 L 260.200 70.200 260.301 199.904 M334.567 70.243 C 335.138 70.462,335.200 74.072,335.200 106.994 C 335.200 137.019,335.295 143.581,335.736 143.947 C 336.107 144.255,341.784 144.424,354.236 144.496 L 372.200 144.600 372.200 162.600 L 372.200 180.600 353.800 180.800 L 335.400 181.000 335.196 236.600 C 335.085 267.180,334.950 292.247,334.896 292.304 C 334.843 292.361,326.697 292.361,316.794 292.304 L 298.789 292.200 298.797 181.457 C 298.802 120.549,298.905 70.554,299.026 70.357 C 299.271 69.962,333.548 69.852,334.567 70.243 M150.310 236.200 C 150.370 266.340,150.321 291.406,150.201 291.902 L 149.984 292.804 113.092 292.702 L 76.200 292.600 76.097 237.400 C 76.041 207.040,76.080 181.974,76.185 181.698 C 76.337 181.299,83.970 181.217,113.288 181.298 L 150.200 181.400 150.310 236.200 M75.357 182.233 C 75.675 183.060,75.675 290.940,75.357 291.767 C 75.073 292.508,40.113 292.753,39.380 292.020 C 39.143 291.783,39.039 270.981,39.103 236.620 L 39.206 181.600 57.160 181.600 C 73.163 181.600,75.141 181.669,75.357 182.233 " stroke="none" fill="#3c748c" fill-rule="evenodd"></path><path id="path4" d="M150.267 69.467 C 150.120 69.613,150.000 86.163,150.000 106.243 C 150.000 133.814,149.885 142.824,149.529 143.044 C 149.270 143.204,132.635 143.349,112.562 143.367 C 92.490 143.385,75.917 143.550,75.733 143.733 C 75.550 143.916,75.350 152.331,75.288 162.433 L 75.177 180.800 57.002 180.800 C 40.101 180.800,38.802 180.849,38.458 181.500 C 37.623 183.079,38.002 292.002,38.845 292.845 C 39.562 293.562,40.486 293.600,57.400 293.600 L 75.200 293.600 75.200 311.400 C 75.200 328.667,75.224 329.224,76.000 330.000 C 77.113 331.113,186.662 331.281,187.771 330.171 C 188.544 329.399,188.756 71.413,187.986 69.974 C 187.566 69.189,151.036 68.698,150.267 69.467 M223.419 69.570 C 222.951 70.327,223.182 329.696,223.651 330.262 C 224.424 331.193,259.621 331.039,260.763 330.100 L 261.614 329.400 261.507 199.685 C 261.412 84.897,261.331 69.927,260.800 69.592 C 260.009 69.091,223.728 69.070,223.419 69.570 M297.844 69.829 C 297.205 71.494,297.586 292.329,298.229 292.971 C 298.782 293.524,301.042 293.600,317.029 293.600 L 335.200 293.600 335.200 311.551 C 335.200 326.230,335.300 329.585,335.746 329.955 C 336.672 330.724,372.484 330.380,372.697 329.600 C 372.820 329.152,372.771 329.127,372.504 329.504 C 372.225 329.900,368.232 329.986,353.974 329.904 L 335.800 329.800 335.800 311.600 L 335.800 293.400 353.974 293.296 C 368.232 293.214,372.225 293.300,372.504 293.696 C 372.771 294.073,372.820 294.048,372.697 293.600 C 372.555 293.080,370.105 292.986,354.265 292.896 L 335.997 292.792 336.099 237.296 L 336.200 181.800 354.600 181.590 C 364.720 181.474,373.045 181.339,373.100 181.290 C 373.585 180.854,373.124 144.381,372.628 143.885 C 372.147 143.404,369.223 143.319,354.389 143.356 C 344.673 143.380,336.562 143.300,336.364 143.178 C 336.156 143.049,335.961 127.387,335.902 106.178 L 335.800 69.400 316.944 69.296 C 300.010 69.203,298.064 69.257,297.844 69.829 M187.520 70.080 C 188.078 70.638,188.227 328.624,187.669 329.501 C 187.416 329.900,175.972 329.982,131.776 329.901 L 76.200 329.800 76.000 311.600 L 75.800 293.400 57.668 293.200 C 38.165 292.985,37.800 292.940,38.591 290.879 C 38.706 290.579,38.800 265.779,38.800 235.767 L 38.800 181.200 57.157 181.200 C 73.528 181.200,75.541 181.132,75.757 180.567 C 75.891 180.219,76.000 171.961,76.000 162.216 C 76.000 148.499,76.113 144.417,76.500 144.140 C 76.786 143.936,92.584 143.800,113.400 143.823 C 139.016 143.851,149.887 143.735,150.094 143.431 C 150.256 143.194,150.391 126.605,150.394 106.567 C 150.397 86.528,150.520 70.013,150.667 69.867 C 151.183 69.350,186.998 69.558,187.520 70.080 M260.298 69.929 C 260.694 70.180,260.797 96.893,260.802 200.022 L 260.807 329.800 242.304 329.800 L 223.800 329.800 223.698 200.200 C 223.641 128.920,223.681 70.375,223.785 70.100 C 224.003 69.526,259.403 69.360,260.298 69.929 M335.605 106.800 C 335.718 127.150,335.853 143.816,335.905 143.835 C 335.957 143.854,344.042 143.854,353.871 143.835 C 368.187 143.807,371.848 143.905,372.271 144.329 C 372.869 144.926,373.062 179.768,372.473 180.696 C 372.231 181.076,367.912 181.216,353.979 181.296 L 335.800 181.400 335.699 236.761 C 335.625 276.867,335.474 292.270,335.150 292.661 C 334.581 293.346,300.042 293.465,298.774 292.786 C 297.810 292.270,297.523 71.037,298.484 70.076 C 298.852 69.708,303.349 69.617,317.184 69.696 L 335.400 69.800 335.605 106.800 M76.185 181.698 C 76.080 181.974,76.041 207.040,76.097 237.400 L 76.200 292.600 113.092 292.702 L 149.984 292.804 150.201 291.902 C 150.321 291.406,150.370 266.340,150.310 236.200 L 150.200 181.400 113.288 181.298 C 83.970 181.217,76.337 181.299,76.185 181.698 M149.552 182.143 C 149.883 182.540,149.976 197.307,149.901 237.443 L 149.800 292.200 113.425 292.302 C 90.712 292.366,76.961 292.261,76.814 292.023 C 76.626 291.718,76.559 182.966,76.747 181.900 C 76.853 181.301,149.054 181.542,149.552 182.143 " stroke="none" fill="#395971" fill-rule="evenodd"></path></g></svg>