<svg width="32" height="32" viewBox="0 0 32 32" fill="none" xmlns="http://www.w3.org/2000/svg">
<path d="M15.5078 17.0015C15.6036 17.002 15.6967 17.0027 15.7872 17.0036L16.3005 17.0117L16.7583 17.0257L17.1667 17.0468C18.1309 17.1093 18.689 17.2489 19.2699 17.5449C20.2108 18.0243 20.9757 18.7892 21.4551 19.7301L21.5039 19.8281L21.5928 20.0215L21.6705 20.2155C21.6825 20.2482 21.6942 20.2811 21.7054 20.3143L21.7678 20.5185C21.7774 20.5535 21.7866 20.589 21.7954 20.6251L21.8441 20.8507C21.8516 20.8899 21.8586 20.9299 21.8654 20.9709L21.902 21.229L21.9315 21.5151L21.9546 21.8342L21.9721 22.1911L21.9892 22.8085L21.999 23.8109L22 25C22 25.5523 21.5523 26 21 26H6C5.44759 26 4.99983 25.5521 5 24.9997L5.00038 23.7877L5.0036 23.2128L5.01165 22.6995L5.02567 22.2417L5.04677 21.8333C5.10933 20.8691 5.24894 20.311 5.54497 19.7301C6.02433 18.7892 6.78924 18.0243 7.73008 17.5449C8.34979 17.2292 8.94341 17.0914 10.0317 17.0353L10.464 17.0178L10.9488 17.007L11.4922 17.0015H15.5078ZM24.2699 17.5449C25.2107 18.0243 25.9756 18.7892 26.455 19.7301L26.5497 19.9251C26.5645 19.9573 26.5788 19.9894 26.5927 20.0215L26.6704 20.2155C26.6825 20.2482 26.6941 20.2811 26.7053 20.3143L26.7677 20.5185C26.7773 20.5535 26.7865 20.589 26.7954 20.6251L26.8441 20.8507C26.8589 20.929 26.8724 21.0108 26.8846 21.0968L26.9176 21.3683L26.9438 21.6702L26.972 22.1911L26.9892 22.8085L26.9977 23.5392L27 25C27 25.5523 26.5522 26 26 26C25.4871 26 25.0644 25.614 25.0067 25.1166L25 25L24.9991 23.8726L24.9901 22.918L24.9751 22.3503L24.9602 22.0327L24.9409 21.7575L24.9166 21.5194C24.9121 21.4825 24.9074 21.447 24.9025 21.4126L24.8699 21.2204C24.8521 21.1307 24.832 21.05 24.8093 20.9753L24.7603 20.833L24.7041 20.7014C24.694 20.6801 24.6837 20.659 24.673 20.638C24.4173 20.1363 24.0263 19.7179 23.5461 19.4291L23.3619 19.327C22.8698 19.0762 22.6742 18.474 22.9249 17.982C23.1756 17.4899 23.7778 17.2942 24.2699 17.5449ZM15.4733 19.0013H11.5284L10.8308 19.0096L10.2575 19.0276L9.93561 19.0458L9.6559 19.0698L9.41315 19.0999L9.20213 19.1368C9.07086 19.1637 8.95727 19.1956 8.85439 19.233L8.70722 19.2934L8.63804 19.327C8.07356 19.6146 7.61461 20.0735 7.32698 20.638C7.30387 20.6834 7.28229 20.7301 7.26215 20.7791L7.20598 20.9337C7.17998 21.0152 7.15702 21.1037 7.13679 21.2021L7.09991 21.413L7.06978 21.6557L7.04585 21.9353L7.02041 22.4353L7.00587 23.0476L7 24H19.999L19.996 23.3632L19.9901 22.9152L19.975 22.3464L19.96 22.0282L19.9406 21.7528L19.9161 21.5146L19.8862 21.3084L19.8502 21.1288C19.8437 21.1008 19.837 21.0737 19.8299 21.0473L19.7841 20.8977L19.7311 20.7614L19.673 20.638C19.3854 20.0736 18.9264 19.6146 18.362 19.327C18.3166 19.3039 18.2699 19.2823 18.2209 19.2621L18.0664 19.206C17.9849 19.18 17.8964 19.157 17.7979 19.1368L17.587 19.0999L17.3443 19.0698L17.0648 19.0458L16.5649 19.0204L15.9526 19.0059L15.4733 19.0013ZM13.5 6C15.9853 6 18 8.01472 18 10.5C18 12.9853 15.9853 15 13.5 15C11.0147 15 9 12.9853 9 10.5C9 8.01472 11.0147 6 13.5 6ZM20.82 6.64348C22.1614 7.4518 23 8.904 23 10.5C23 12.096 22.1614 13.5482 20.82 14.3565C20.3469 14.6416 19.7324 14.4892 19.4473 14.0161C19.1623 13.5431 19.3147 12.9285 19.7877 12.6435C20.5347 12.1934 21 11.3875 21 10.5C21 9.61248 20.5347 8.8066 19.7877 8.35652C19.3147 8.07148 19.1623 7.45693 19.4473 6.98389C19.7324 6.51084 20.3469 6.35844 20.82 6.64348ZM13.5 8C12.1193 8 11 9.11929 11 10.5C11 11.8807 12.1193 13 13.5 13C14.8807 13 16 11.8807 16 10.5C16 9.11929 14.8807 8 13.5 8Z" fill="#C6D300"/>
</svg>
