<svg width="32" height="32" viewBox="0 0 32 32" fill="none" xmlns="http://www.w3.org/2000/svg">
<g clip-path="url(#clip0_587_53457)">
<path d="M11.5284 19.0013H15.4733L15.9526 19.0059L16.5649 19.0204L17.0648 19.0458L17.3443 19.0698L17.587 19.0999L17.7979 19.1368C17.8964 19.157 17.9849 19.18 18.0664 19.206L18.2209 19.2621C18.2699 19.2823 18.3166 19.3039 18.362 19.327C18.9264 19.6146 19.3854 20.0736 19.673 20.638L19.7311 20.7614L19.7841 20.8977L19.8299 21.0473C19.837 21.0737 19.8437 21.1008 19.8502 21.1288L19.8862 21.3084L19.9161 21.5146L19.9406 21.7528L19.96 22.0282L19.975 22.3464L19.9901 22.9152L19.996 23.3632L19.999 24H7L7.00587 23.0476L7.02041 22.4353L7.04585 21.9353L7.06977 21.6557L7.09991 21.413L7.13679 21.2021C7.15702 21.1037 7.17998 21.0152 7.20598 20.9337L7.26215 20.7791C7.28229 20.7301 7.30387 20.6834 7.32698 20.638C7.61461 20.0735 8.07356 19.6146 8.63804 19.327L8.70722 19.2934L8.85439 19.233C8.95727 19.1956 9.07086 19.1637 9.20212 19.1368L9.41315 19.0999L9.6559 19.0698L9.93561 19.0458L10.2575 19.0276L10.8308 19.0096L11.5284 19.0013Z" fill="#C6D300"/>
<path d="M11 10.5C11 9.11929 12.1193 8 13.5 8C14.8807 8 16 9.11929 16 10.5C16 11.8807 14.8807 13 13.5 13C12.1193 13 11 11.8807 11 10.5Z" fill="#C6D300"/>
<path fill-rule="evenodd" clip-rule="evenodd" d="M4 0C1.79086 0 0 1.79086 0 4V28C0 30.2091 1.79086 32 4 32H28C30.2091 32 32 30.2091 32 28V4C32 1.79086 30.2091 0 28 0H4ZM15.7872 17.0036C15.6967 17.0027 15.6036 17.002 15.5078 17.0015H11.4922L10.9488 17.007L10.464 17.0178L10.0317 17.0353C8.94341 17.0914 8.34979 17.2292 7.73007 17.5449C6.78924 18.0243 6.02433 18.7892 5.54497 19.7301C5.24894 20.311 5.10933 20.8691 5.04677 21.8333L5.02567 22.2417L5.01165 22.6995L5.0036 23.2128L5.00038 23.7877L5 24.9997C4.99983 25.5521 5.44759 26 6 26H21C21.5523 26 22 25.5523 22 25L21.999 23.8109L21.9892 22.8085L21.9721 22.1911L21.9546 21.8342L21.9315 21.5151L21.902 21.229L21.8654 20.9709C21.8586 20.9299 21.8515 20.8899 21.8441 20.8507L21.7954 20.6251C21.7866 20.589 21.7774 20.5535 21.7678 20.5185L21.7054 20.3143C21.6942 20.2811 21.6825 20.2482 21.6705 20.2155L21.5928 20.0215L21.5039 19.8281L21.4551 19.7301C20.9757 18.7892 20.2108 18.0243 19.2699 17.5449C18.689 17.2489 18.1309 17.1093 17.1667 17.0468L16.7583 17.0257L16.3005 17.0117L15.7872 17.0036ZM26.455 19.7301C25.9756 18.7892 25.2107 18.0243 24.2699 17.5449C23.7778 17.2942 23.1756 17.4899 22.9249 17.982C22.6742 18.474 22.8698 19.0762 23.3619 19.327L23.5461 19.4291C24.0263 19.7179 24.4173 20.1363 24.673 20.638C24.6837 20.659 24.694 20.6801 24.7041 20.7014L24.7603 20.833L24.8093 20.9753C24.832 21.05 24.8521 21.1307 24.8699 21.2204L24.9025 21.4126C24.9054 21.4332 24.9083 21.4541 24.9111 21.4755C24.913 21.49 24.9148 21.5046 24.9166 21.5194L24.9409 21.7575L24.9602 22.0327L24.9751 22.3503L24.9901 22.918L24.9991 23.8726L25 25L25.0067 25.1166C25.0644 25.614 25.4871 26 26 26C26.5522 26 27 25.5523 27 25L26.9977 23.5392L26.9892 22.8085L26.972 22.1911L26.9438 21.6702L26.9176 21.3683L26.8846 21.0968C26.8724 21.0108 26.8589 20.929 26.8441 20.8507L26.7954 20.6251C26.7865 20.589 26.7773 20.5535 26.7677 20.5185L26.7053 20.3143C26.6941 20.2811 26.6825 20.2482 26.6704 20.2155L26.5927 20.0215C26.5788 19.9894 26.5645 19.9573 26.5497 19.9251L26.455 19.7301ZM18 10.5C18 8.01472 15.9853 6 13.5 6C11.0147 6 9 8.01472 9 10.5C9 12.9853 11.0147 15 13.5 15C15.9853 15 18 12.9853 18 10.5ZM23 10.5C23 8.904 22.1614 7.4518 20.82 6.64348C20.3469 6.35844 19.7324 6.51084 19.4473 6.98389C19.1623 7.45693 19.3147 8.07148 19.7877 8.35652C20.5347 8.8066 21 9.61248 21 10.5C21 11.3875 20.5347 12.1934 19.7877 12.6435C19.3147 12.9285 19.1623 13.5431 19.4473 14.0161C19.7324 14.4892 20.3469 14.6416 20.82 14.3565C22.1614 13.5482 23 12.096 23 10.5Z" fill="#C6D300"/>
</g>
<defs>
<clipPath id="clip0_587_53457">
<rect width="32" height="32" rx="4" fill="white"/>
</clipPath>
</defs>
</svg>
