<svg width="32" height="32" viewBox="0 0 32 32" fill="none" xmlns="http://www.w3.org/2000/svg">
<g clip-path="url(#clip0_587_53447)">
<path d="M11.5 21.5V13.5862C11.5 11.678 12.4077 9.88347 13.945 8.75282L16 7.24136L18.055 8.75282C19.5923 9.88347 20.5 11.678 20.5 13.5862V21.5H11.5Z" fill="#C6D300"/>
<path d="M9.5 17.382V14.9142L8.5 15.9142V17.882L9.5 17.382Z" fill="#C6D300"/>
<path d="M23.5 17.882L22.5 17.382V14.9142L23.5 15.9142V17.882Z" fill="#C6D300"/>
<path fill-rule="evenodd" clip-rule="evenodd" d="M4 0C1.79086 0 0 1.79086 0 4V28C0 30.2091 1.79086 32 4 32H28C30.2091 32 32 30.2091 32 28V4C32 1.79086 30.2091 0 28 0H4ZM16.5925 5.19443C16.24 4.93519 15.76 4.93519 15.4075 5.19443L12.76 7.14167C11.1694 8.3116 10.0842 10.0146 9.67795 11.9078L6.79289 14.7929C6.60536 14.9804 6.5 15.2348 6.5 15.5V19.5C6.5 19.8466 6.67945 20.1684 6.97427 20.3507C7.26909 20.5329 7.63723 20.5494 7.94721 20.3944L9.5 19.618V22.5C9.5 23.0523 9.94772 23.5 10.5 23.5H12V25C12 25.5523 12.4477 26 13 26C13.5523 26 14 25.5523 14 25V23.5H15V26C15 26.5523 15.4477 27 16 27C16.5523 27 17 26.5523 17 26V23.5H18V25C18 25.5523 18.4477 26 19 26C19.5523 26 20 25.5523 20 25V23.5H21.5C22.0523 23.5 22.5 23.0523 22.5 22.5V19.618L24.0528 20.3944C24.3628 20.5494 24.7309 20.5329 25.0257 20.3507C25.3205 20.1684 25.5 19.8466 25.5 19.5V15.5C25.5 15.2348 25.3946 14.9804 25.2071 14.7929L22.3221 11.9078C21.9158 10.0146 20.8306 8.3116 19.24 7.14167L16.5925 5.19443Z" fill="#C6D300"/>
</g>
<defs>
<clipPath id="clip0_587_53447">
<rect width="32" height="32" rx="4" fill="white"/>
</clipPath>
</defs>
</svg>
