<svg width="32" height="32" viewBox="0 0 32 32" fill="none" xmlns="http://www.w3.org/2000/svg">
<path fill-rule="evenodd" clip-rule="evenodd" d="M15.4075 5.19443C15.76 4.93519 16.24 4.93519 16.5925 5.19443L19.24 7.14168C20.8306 8.3116 21.9158 10.0146 22.3221 11.9078L25.2071 14.7929C25.3946 14.9804 25.5 15.2348 25.5 15.5V19.5C25.5 19.8466 25.3205 20.1684 25.0257 20.3507C24.7309 20.5329 24.3628 20.5494 24.0528 20.3944L22.5 19.618V22.5C22.5 23.0523 22.0523 23.5 21.5 23.5H20V25C20 25.5523 19.5523 26 19 26C18.4477 26 18 25.5523 18 25V23.5H17V26C17 26.5523 16.5523 27 16 27C15.4477 27 15 26.5523 15 26V23.5H14V25C14 25.5523 13.5523 26 13 26C12.4477 26 12 25.5523 12 25V23.5H10.5C9.94772 23.5 9.5 23.0523 9.5 22.5V19.618L7.94721 20.3944C7.63723 20.5494 7.26909 20.5329 6.97427 20.3507C6.67945 20.1684 6.5 19.8466 6.5 19.5V15.5C6.5 15.2348 6.60536 14.9804 6.79289 14.7929L9.67795 11.9078C10.0842 10.0146 11.1694 8.3116 12.76 7.14168L15.4075 5.19443ZM11.5 13.5862V21.5H20.5V13.5862C20.5 11.678 19.5923 9.88347 18.055 8.75282L16 7.24136L13.945 8.75282C12.4077 9.88347 11.5 11.678 11.5 13.5862ZM9.5 14.9142V17.382L8.5 17.882V15.9142L9.5 14.9142ZM22.5 17.382L23.5 17.882V15.9142L22.5 14.9142V17.382Z" fill="#C6D300"/>
</svg>
