<svg width="32" height="32" viewBox="0 0 32 32" fill="none" xmlns="http://www.w3.org/2000/svg">
<rect width="32" height="32" rx="16" fill="white"/>
<mask id="mask0_139_68" style="mask-type:alpha" maskUnits="userSpaceOnUse" x="0" y="0" width="32" height="32">
<rect width="32" height="32" rx="16" fill="#191937"/>
</mask>
<g mask="url(#mask0_139_68)">
<path fill-rule="evenodd" clip-rule="evenodd" d="M9.02665 6C9.61387 6.08389 11.0903 6.70466 12.2983 8.51666C12.5459 8.18653 13.6704 7.58033 16.1991 7.75253C18.7278 7.58033 19.8524 8.18653 20.1 8.51666C21.308 6.70466 22.7844 6.08389 23.3716 6C23.9756 7.81199 23.6233 9.43943 23.3716 10.0266C24.3783 10.7816 25.6366 14.0533 24.6299 17.8283C23.8246 20.8483 20.2677 21.9388 18.59 22.1066C19.194 22.9119 19.345 24.1199 19.345 24.6232V26.8882V32.6917L17.75 33H16.3249H16.0733H14.75L13.0533 32.6697V26.8882C12.1305 27.1399 9.93264 27.3412 8.52332 26.1332C8.27165 25.8816 7.71799 25.2272 7.51666 24.6232C7.26499 24.1199 6.56033 22.9119 5.755 22.1066C5.67111 22.0227 5.40266 21.8046 5 21.6033C5.25167 21.3516 6.057 21.0496 7.26499 21.8549C7.26499 21.8549 7.61732 22.0059 8.01999 22.6099C8.06688 22.6803 8.11378 22.7528 8.16169 22.8269C8.62803 23.5481 9.19078 24.4185 10.7883 24.8749C11.3755 24.9588 12.6506 25.0259 13.0533 24.6232C13.0533 24.1199 13.2043 22.9119 13.8083 22.1066C12.1305 21.9388 8.57365 20.8483 7.76832 17.8283C6.76166 14.0533 8.01999 10.7816 9.02665 10.0266C8.77498 9.43943 8.42265 7.81199 9.02665 6Z" fill="#8E92AF"/>
</g>
</svg>
