<svg width="32" height="32" viewBox="0 0 32 32" fill="none" xmlns="http://www.w3.org/2000/svg">
<g clip-path="url(#clip0_587_53451)">
<path fill-rule="evenodd" clip-rule="evenodd" d="M4 0C1.79086 0 0 1.79086 0 4V28C0 30.2091 1.79086 32 4 32H28C30.2091 32 32 30.2091 32 28V4C32 1.79086 30.2091 0 28 0H4ZM17.5 6C17.5 5.62541 17.2907 5.28224 16.9576 5.11083C16.6245 4.93943 16.2236 4.96854 15.9188 5.18627L8.91876 10.1863C8.65597 10.374 8.5 10.677 8.5 11V25H6C5.44772 25 5 25.4477 5 26C5 26.5523 5.44772 27 6 27H26C26.5523 27 27 26.5523 27 26C27 25.4477 26.5523 25 26 25H24.5V15.5C24.5 15.177 24.344 14.874 24.0812 14.6863L17.5 9.98538V6ZM15.5 25H10.5V11.5146L15.5 7.94319V10.4867C15.4999 10.495 15.4999 10.5033 15.5 10.5116V25ZM17.5 25V12.4432L22.5 16.0146V25H17.5Z" fill="#C6D300"/>
</g>
<defs>
<clipPath id="clip0_587_53451">
<rect width="32" height="32" rx="4" fill="white"/>
</clipPath>
</defs>
</svg>
