<svg width="32" height="32" viewBox="0 0 32 32" fill="none" xmlns="http://www.w3.org/2000/svg">
<path fill-rule="evenodd" clip-rule="evenodd" d="M16.9576 5.11084C17.2907 5.28224 17.5 5.62542 17.5 6V9.98539L24.0812 14.6863C24.344 14.874 24.5 15.1771 24.5 15.5V25H26C26.5523 25 27 25.4477 27 26C27 26.5523 26.5523 27 26 27H6C5.44772 27 5 26.5523 5 26C5 25.4477 5.44772 25 6 25H8.5V11C8.5 10.6771 8.65597 10.374 8.91876 10.1863L15.9188 5.18627C16.2236 4.96855 16.6245 4.93943 16.9576 5.11084ZM10.5 25H15.5V10.5116C15.4999 10.5033 15.4999 10.495 15.5 10.4867V7.94319L10.5 11.5146V25ZM17.5 12.4432V25H22.5V16.0146L17.5 12.4432Z" fill="#C6D300"/>
</svg>
