<svg width="32" height="32" viewBox="0 0 32 32" fill="none" xmlns="http://www.w3.org/2000/svg">
<path fill-rule="evenodd" clip-rule="evenodd" d="M20 7C17.2386 7 15 9.23858 15 12C15 12.8462 15.2094 13.6406 15.5784 14.337C15.784 14.725 15.7124 15.2018 15.4019 15.5123L7.41421 23.5L8.5 24.5858L16.4877 16.5981C16.7982 16.2876 17.275 16.216 17.663 16.4216C18.3594 16.7906 19.1538 17 20 17C22.7614 17 25 14.7614 25 12C25 11.6613 24.9664 11.3309 24.9025 11.0117L22.2071 13.7071C21.8166 14.0976 21.1834 14.0976 20.7929 13.7071L18.2929 11.2071C17.9024 10.8166 17.9024 10.1834 18.2929 9.79289L20.9883 7.09747C20.6692 7.03356 20.3387 7 20 7ZM13 12C13 8.134 16.134 5 20 5C21.1805 5 22.2955 5.29303 23.2734 5.81117C23.5538 5.95972 23.747 6.23251 23.7941 6.54627C23.8412 6.86004 23.7367 7.17755 23.5123 7.4019L20.4142 10.5L21.5 11.5858L24.5981 8.48769C24.8225 8.26334 25.14 8.15876 25.4537 8.20589C25.7675 8.25302 26.0403 8.44625 26.1888 8.72662C26.7069 9.70447 27 10.8195 27 12C27 15.866 23.866 19 20 19C19.0862 19 18.2116 18.8244 17.4095 18.5047L9.20711 26.7071C8.81658 27.0976 8.18342 27.0976 7.79289 26.7071L5.29289 24.2071C4.90237 23.8166 4.90237 23.1834 5.29289 22.7929L13.4953 14.5905C13.1756 13.7884 13 12.9138 13 12Z" fill="#C6D300"/>
</svg>
