<svg width="32" height="32" viewBox="0 0 32 32" fill="none" xmlns="http://www.w3.org/2000/svg">
<g clip-path="url(#clip0_587_53441)">
<path d="M15 12C15 9.23858 17.2386 7 20 7C20.3387 7 20.6692 7.03356 20.9883 7.09747L18.2929 9.79289C17.9024 10.1834 17.9024 10.8166 18.2929 11.2071L20.7929 13.7071C21.1834 14.0976 21.8166 14.0976 22.2071 13.7071L24.9025 11.0117C24.9664 11.3309 25 11.6613 25 12C25 14.7614 22.7614 17 20 17C19.1538 17 18.3594 16.7906 17.663 16.4216C17.275 16.216 16.7982 16.2876 16.4877 16.5981L8.5 24.5858L7.41421 23.5L15.4019 15.5123C15.7124 15.2018 15.784 14.725 15.5784 14.337C15.2094 13.6406 15 12.8462 15 12Z" fill="#C6D300"/>
<path fill-rule="evenodd" clip-rule="evenodd" d="M4 0C1.79086 0 0 1.79086 0 4V28C0 30.2091 1.79086 32 4 32H28C30.2091 32 32 30.2091 32 28V4C32 1.79086 30.2091 0 28 0H4ZM20 5C16.134 5 13 8.134 13 12C13 12.9138 13.1756 13.7884 13.4953 14.5905L5.29289 22.7929C4.90237 23.1834 4.90237 23.8166 5.29289 24.2071L7.79289 26.7071C8.18342 27.0976 8.81658 27.0976 9.20711 26.7071L17.4095 18.5047C18.2116 18.8244 19.0862 19 20 19C23.866 19 27 15.866 27 12C27 10.8195 26.7069 9.70447 26.1888 8.72662C26.0403 8.44625 25.7675 8.25302 25.4537 8.20589C25.14 8.15876 24.8225 8.26334 24.5981 8.48769L21.5 11.5858L20.4142 10.5L23.5123 7.4019C23.7367 7.17755 23.8412 6.86004 23.7941 6.54627C23.747 6.23251 23.5538 5.95972 23.2734 5.81117C22.2955 5.29303 21.1805 5 20 5Z" fill="#C6D300"/>
</g>
<defs>
<clipPath id="clip0_587_53441">
<rect width="32" height="32" rx="4" fill="white"/>
</clipPath>
</defs>
</svg>
