<svg width="32" height="32" viewBox="0 0 32 32" fill="none" xmlns="http://www.w3.org/2000/svg">
<path d="M12.1396 6.82143L12.2701 6.93964L20.9791 15.4063L21.8098 12.3513C22.1824 10.9796 23.5335 10.127 24.9167 10.3593L25.1388 10.406C26.5587 10.7665 27.4176 12.2098 27.0571 13.6298L26.465 15.9261L26.1134 17.2469L25.8719 18.1283L25.5791 19.159L25.3192 20.0259L25.1455 20.5696L24.9897 21.0227L24.8957 21.2747L24.8095 21.4868C24.7958 21.5189 24.7824 21.5493 24.7693 21.5781C24.0637 23.1298 22.6181 24.6979 20.9204 25.8314C19.0826 27.0585 15.7465 26.5868 13.9033 25.0431L13.6788 24.8514L13.2858 24.5029L12.8265 24.0821L12.1131 23.4101L11.0633 22.3953L10.1008 21.4463L9.03252 20.378L8.16372 19.4997L6.59082 17.8922L5.90462 17.1847C4.90766 16.1388 4.94738 14.4826 5.99333 13.4857C6.16999 13.3173 6.36391 13.1781 6.56904 13.0679L5.8487 12.3331C5.83893 12.3223 5.8273 12.3091 5.80985 12.2894C4.90073 11.2384 5.01574 9.64935 6.06674 8.74024C6.66155 8.22573 7.41868 8.01009 8.14909 8.08691C8.25135 7.73219 8.4305 7.39466 8.68589 7.09821L8.78592 6.98894C9.69314 6.05562 11.1598 5.99486 12.1396 6.82143ZM7.4558 20.3758C7.74945 20.8683 8.09089 21.3312 8.47462 21.7574C8.85846 22.1837 9.28314 22.5716 9.74223 22.9151C9.97143 23.0866 10.2091 23.2468 10.4541 23.3951C10.6992 23.5433 10.9513 23.6794 11.2095 23.8027C11.7079 24.0406 11.9191 24.6375 11.6811 25.1359C11.4432 25.6343 10.8462 25.8455 10.3478 25.6075C10.0301 25.4559 9.72015 25.2885 9.41887 25.1063C9.11767 24.9241 8.82573 24.7272 8.54414 24.5165C7.98053 24.0949 7.45936 23.6188 6.98836 23.0957C6.51744 22.5727 6.09841 22.0046 5.73793 21.3999C5.45511 20.9256 5.61041 20.3117 6.08479 20.0289C6.55916 19.7461 7.17299 19.9014 7.4558 20.3758ZM10.2915 8.32302L10.2104 8.39319L10.2012 8.40356C9.99796 8.63944 9.98778 8.97934 10.1628 9.22507L10.2071 9.27726L15.2491 14.2774C15.5811 14.6063 15.6344 15.1102 15.4074 15.4952C15.3658 15.5655 15.3153 15.6316 15.2554 15.6919L15.1616 15.7755L15.0608 15.8451C14.9564 15.9079 14.843 15.9501 14.7265 15.9714L14.6086 15.9858L14.4911 15.9864L14.3731 15.9729C14.2175 15.9459 14.067 15.8818 13.9358 15.7807L13.8911 15.7423L13.8416 15.6983L8.8296 10.7333L8.74013 10.6393L8.38443 10.2872C8.10867 10.0138 7.66887 9.99881 7.37516 10.2529C7.18352 10.4186 7.14359 10.6946 7.2679 10.9051L7.33323 10.993L12.8413 16.6062L12.8921 16.6643L12.9108 16.6847C12.912 16.6863 12.9133 16.6879 12.9146 16.6895L12.8413 16.6062C12.8829 16.6486 12.9199 16.6937 12.9524 16.7411C12.9874 16.7918 13.0173 16.8455 13.0419 16.901C13.0503 16.9198 13.0584 16.9398 13.0658 16.96C13.0726 16.9784 13.0786 16.9965 13.0842 17.0147C13.09 17.0337 13.0952 17.053 13.0999 17.0723C13.1042 17.0906 13.108 17.1087 13.1113 17.1269C13.1167 17.1563 13.1208 17.1864 13.1235 17.2167C13.124 17.2227 13.1245 17.2284 13.1249 17.2341L13.1235 17.2167C13.1267 17.2517 13.128 17.2869 13.1274 17.322C13.1272 17.3355 13.1267 17.3489 13.126 17.3622C13.1224 17.4266 13.1127 17.4908 13.0967 17.5537C13.093 17.5682 13.089 17.5825 13.0848 17.5967C13.0797 17.6132 13.0743 17.6297 13.0684 17.6461C13.0602 17.6689 13.0512 17.6912 13.0414 17.7133C13.0332 17.7316 13.0245 17.7498 13.0151 17.7678C13.0074 17.7827 12.9992 17.7976 12.9906 17.8122C12.9788 17.8322 12.9665 17.8517 12.9534 17.8708C12.9417 17.8879 12.9291 17.905 12.916 17.9218C12.9072 17.9331 12.8984 17.9439 12.8893 17.9546C12.8745 17.9719 12.8589 17.9889 12.8427 18.0056C12.8331 18.0153 12.8305 18.0178 12.8279 18.0203L12.7981 18.0453L12.7494 18.0898C12.7462 18.0924 12.743 18.0949 12.7398 18.0974L12.8279 18.0203C12.789 18.0586 12.7477 18.0929 12.7046 18.1235C12.6818 18.1396 12.6587 18.1546 12.6351 18.1685C12.6203 18.1772 12.6054 18.1855 12.5904 18.1933C12.5735 18.2022 12.5563 18.2105 12.539 18.2183C12.5161 18.2287 12.4927 18.2382 12.4691 18.2467C12.4526 18.2527 12.4361 18.2582 12.4194 18.2633C12.4004 18.2691 12.3812 18.2743 12.3618 18.2789C12.3436 18.2833 12.3255 18.2871 12.3073 18.2904C12.2758 18.2962 12.2437 18.3004 12.2114 18.3031C12.2066 18.3035 12.2013 18.3039 12.196 18.3043C12.1675 18.3062 12.1395 18.3069 12.1117 18.3065C12.0986 18.3063 12.0852 18.3058 12.0719 18.3051C12.0415 18.3034 12.011 18.3003 11.9808 18.2958C11.9734 18.2948 11.9664 18.2936 11.9594 18.2925C11.9331 18.288 11.9067 18.2824 11.8804 18.2757C11.866 18.2721 11.8517 18.2681 11.8376 18.2639C11.8109 18.2558 11.7844 18.2466 11.7584 18.2362C11.7484 18.2323 11.7381 18.228 11.728 18.2236C11.7015 18.2121 11.6757 18.1995 11.6504 18.1857C11.6409 18.1806 11.6314 18.1752 11.6219 18.1696C11.6004 18.157 11.5794 18.1436 11.5588 18.1294C11.5471 18.1213 11.5354 18.1127 11.5237 18.1039L11.5121 18.0949C11.5105 18.0937 11.5088 18.0924 11.5072 18.0911L11.4701 18.0573L11.4286 18.0218L8.28523 14.9492C8.03675 14.6954 7.63038 14.6883 7.37323 14.9334C7.15421 15.1422 7.12248 15.4737 7.2811 15.7157L7.34951 15.8019L8.92382 17.4193L10.3517 18.868L11.8636 20.3776L12.9486 21.4395L13.6978 22.1575L14.1884 22.6179L14.6164 23.0101L14.9807 23.3332L15.1875 23.5098C16.3964 24.5223 18.7755 24.8587 19.8098 24.1681C21.217 23.2285 22.4103 21.9341 22.9487 20.7501L23.0183 20.586L23.097 20.3794L23.232 19.9904L23.3872 19.507L23.625 18.7168L23.9712 17.4968L24.4571 15.6961L25.0179 13.533C25.0512 13.4029 25.0847 13.2711 25.1186 13.1376C25.2073 12.7883 24.996 12.4331 24.6472 12.3446L24.633 12.3412C24.2728 12.2579 23.9113 12.4493 23.7721 12.7816L23.7399 12.8756L22.4649 17.5688L22.4606 17.5849C22.4542 17.6069 22.4471 17.6287 22.4393 17.6502L22.4649 17.5688C22.454 17.609 22.4407 17.6481 22.4253 17.6858C22.4181 17.7038 22.4102 17.7217 22.4017 17.7393C22.3921 17.7591 22.3823 17.778 22.3719 17.7966C22.3665 17.8062 22.3606 17.8163 22.3546 17.8262C22.3395 17.8509 22.324 17.8741 22.3077 17.8965C22.3004 17.9063 22.2925 17.9167 22.2843 17.927C22.2661 17.9502 22.2474 17.9717 22.2279 17.9924C22.2244 17.996 22.2207 17.9998 22.2169 18.0037L22.2035 18.0174C22.1831 18.0376 22.1619 18.0568 22.1399 18.075L22.2169 18.0037C22.1832 18.0384 22.1475 18.0702 22.1102 18.0989C22.0918 18.113 22.0725 18.1268 22.0527 18.1399C22.0386 18.1496 22.0247 18.1583 22.0107 18.1666C21.9908 18.1781 21.9699 18.1896 21.9486 18.2003C21.9349 18.2075 21.9214 18.2139 21.9078 18.2199C21.8869 18.229 21.8653 18.2378 21.8434 18.2458C21.8284 18.2515 21.8139 18.2564 21.7993 18.261C21.7907 18.2636 21.7815 18.2663 21.7722 18.269L21.7993 18.261C21.7541 18.2751 21.708 18.286 21.6616 18.2936C21.5978 18.3042 21.5322 18.3086 21.4659 18.3063L21.455 18.3057C21.4331 18.3047 21.4113 18.303 21.3895 18.3006C21.3757 18.2991 21.3614 18.2972 21.347 18.2949C21.3198 18.2908 21.2934 18.2856 21.2672 18.2794C21.2578 18.2769 21.2477 18.2744 21.2377 18.2716L21.2216 18.2674C21.1996 18.261 21.1779 18.2539 21.1563 18.246L21.2377 18.2716C21.1978 18.2608 21.1591 18.2477 21.1217 18.2325C21.0955 18.222 21.0696 18.2101 21.0442 18.1971C21.0356 18.1926 21.0274 18.1882 21.0192 18.1838C20.9988 18.1727 20.9786 18.1606 20.9587 18.1478C20.9431 18.1378 20.9279 18.1274 20.913 18.1166C20.908 18.1128 20.9031 18.1092 20.8982 18.1055L20.8728 18.0859C20.855 18.0715 20.8377 18.0566 20.821 18.0411L20.8028 18.0237L10.876 8.37374C10.7152 8.21746 10.4703 8.2011 10.2915 8.32302ZM15.865 5.81578C16.1903 5.9507 16.5087 6.10155 16.8189 6.26769C17.1291 6.43385 17.4309 6.61515 17.7233 6.81088C18.3082 7.20246 18.8536 7.65063 19.3513 8.14835C19.849 8.64605 20.2972 9.19144 20.6888 9.7764C20.996 10.2353 20.8731 10.8564 20.4141 11.1637C19.9552 11.4709 19.3341 11.3479 19.0269 10.889C18.7079 10.4125 18.3427 9.96814 17.9371 9.56257C17.5315 9.15698 17.0871 8.7918 16.6107 8.47284C16.3727 8.3135 16.127 8.16594 15.8746 8.03074C15.6223 7.89561 15.3634 7.77294 15.0989 7.66326C14.5887 7.45172 14.3467 6.86666 14.5582 6.35649C14.7697 5.84633 15.3548 5.60424 15.865 5.81578Z" fill="#C6D300"/>
</svg>
