<svg width="32" height="32" viewBox="0 0 32 32" fill="none" xmlns="http://www.w3.org/2000/svg">
<rect width="32" height="32" rx="4" fill="#F7F9FC"/>
<path d="M12.1397 6.82167L12.2702 6.93989L20.9793 15.4065L21.8099 12.3515C22.1825 10.9799 23.5336 10.1273 24.9168 10.3595L25.1389 10.4062C26.5588 10.7667 27.4177 12.2101 27.0572 13.63L26.4651 15.9263L26.1135 17.2471L25.872 18.1285L25.5793 19.1592L25.3193 20.0262L25.1456 20.5699L24.9898 21.0229L24.8958 21.2749L24.8096 21.4871C24.7959 21.5191 24.7825 21.5496 24.7694 21.5783C24.0638 23.13 22.6182 24.6982 20.9205 25.8317C19.0827 27.0588 15.7466 26.587 13.9035 25.0434L13.679 24.8517L13.286 24.5031L12.8266 24.0823L12.1132 23.4104L11.0634 22.3955L10.1009 21.4466L9.03264 20.3782L8.16385 19.5L6.59094 17.8925L5.90474 17.185C4.90779 16.139 4.9475 14.4829 5.99345 13.486C6.17011 13.3176 6.36403 13.1783 6.56916 13.0681L5.84882 12.3334C5.83905 12.3225 5.82742 12.3094 5.80997 12.2896C4.90085 11.2386 5.01586 9.6496 6.06686 8.74049C6.66167 8.22597 7.4188 8.01034 8.14922 8.08715C8.25147 7.73244 8.43062 7.3949 8.68601 7.09845L8.78604 6.98919C9.69326 6.05587 11.1599 5.9951 12.1397 6.82167ZM7.45593 20.376C7.74957 20.8686 8.09101 21.3315 8.47474 21.7577C8.85858 22.1839 9.28326 22.5719 9.74235 22.9153C9.97155 23.0868 10.2092 23.247 10.4542 23.3953C10.6993 23.5436 10.9514 23.6796 11.2096 23.8029C11.708 24.0409 11.9192 24.6378 11.6812 25.1362C11.4433 25.6346 10.8464 25.8457 10.348 25.6078C10.0303 25.4561 9.72027 25.2888 9.41899 25.1065C9.11779 24.9243 8.82585 24.7274 8.54426 24.5168C7.98066 24.0951 7.45948 23.619 6.98848 23.0959C6.51756 22.573 6.09853 22.0048 5.73805 21.4002C5.45524 20.9258 5.61053 20.312 6.08491 20.0292C6.55929 19.7463 7.17311 19.9016 7.45593 20.376ZM10.2916 8.32326L10.2105 8.39343L10.2013 8.40381C9.99808 8.63968 9.9879 8.97958 10.1629 9.22532L10.2073 9.2775L15.2493 14.2777C15.5813 14.6065 15.6345 15.1105 15.4075 15.4954C15.3659 15.5658 15.3154 15.6318 15.2556 15.6921L15.1617 15.7757L15.061 15.8453C14.9566 15.9082 14.8431 15.9503 14.7266 15.9717L14.6087 15.9861L14.4912 15.9866L14.3732 15.9732C14.2176 15.9461 14.0671 15.8821 13.9359 15.7809L13.8913 15.7425L13.8417 15.6985L8.82972 10.7336L8.74025 10.6395L8.38455 10.2874C8.10879 10.014 7.66899 9.99906 7.37528 10.2531C7.18364 10.4189 7.14371 10.6949 7.26802 10.9054L7.33335 10.9932L12.8414 16.6064L12.8923 16.6645L12.9109 16.6849C12.9122 16.6865 12.9134 16.6882 12.9147 16.6898L12.8414 16.6064C12.883 16.6488 12.92 16.694 12.9526 16.7413C12.9875 16.7921 13.0174 16.8458 13.042 16.9013C13.0504 16.9201 13.0585 16.9401 13.0659 16.9603C13.0727 16.9787 13.0788 16.9967 13.0843 17.015C13.0901 17.034 13.0953 17.0532 13.1 17.0726C13.1043 17.0908 13.1081 17.1089 13.1115 17.1271C13.1168 17.1566 13.1209 17.1867 13.1236 17.2169C13.1242 17.223 13.1246 17.2287 13.125 17.2344L13.1236 17.2169C13.1268 17.252 13.1281 17.2871 13.1275 17.3223C13.1273 17.3358 13.1269 17.3491 13.1261 17.3624C13.1226 17.4268 13.1128 17.491 13.0968 17.554C13.0931 17.5684 13.0892 17.5827 13.0849 17.5969C13.0799 17.6134 13.0744 17.63 13.0685 17.6464C13.0603 17.6691 13.0513 17.6915 13.0415 17.7136C13.0334 17.7319 13.0246 17.7501 13.0153 17.768C13.0075 17.783 12.9993 17.7978 12.9907 17.8125C12.979 17.8325 12.9666 17.852 12.9535 17.8711C12.9418 17.8881 12.9293 17.9053 12.9161 17.9221C12.9074 17.9333 12.8985 17.9441 12.8894 17.9548C12.8746 17.9721 12.8591 17.9892 12.8428 18.0058C12.8332 18.0155 12.8306 18.0181 12.8281 18.0206L12.7983 18.0455L12.7496 18.0901C12.7464 18.0926 12.7431 18.0952 12.7399 18.0977L12.8281 18.0206C12.7891 18.0588 12.7478 18.0932 12.7047 18.1237C12.6819 18.1399 12.6588 18.1549 12.6352 18.1688C12.6204 18.1775 12.6056 18.1857 12.5906 18.1936C12.5736 18.2024 12.5565 18.2107 12.5391 18.2186C12.5162 18.2289 12.4928 18.2384 12.4692 18.247C12.4527 18.2529 12.4362 18.2584 12.4195 18.2635C12.4005 18.2693 12.3813 18.2745 12.3619 18.2792C12.3437 18.2835 12.3256 18.2873 12.3074 18.2906C12.276 18.2964 12.2438 18.3007 12.2115 18.3034C12.2068 18.3037 12.2014 18.3041 12.1961 18.3045C12.1676 18.3064 12.1397 18.3072 12.1118 18.3067C12.0987 18.3065 12.0853 18.3061 12.072 18.3053C12.0416 18.3036 12.0111 18.3005 11.9809 18.2961C11.9735 18.295 11.9665 18.2939 11.9595 18.2927C11.9333 18.2882 11.9068 18.2827 11.8805 18.276C11.8661 18.2723 11.8519 18.2684 11.8377 18.2641C11.811 18.256 11.7846 18.2468 11.7585 18.2365C11.7485 18.2325 11.7383 18.2283 11.7281 18.2238C11.7016 18.2123 11.6758 18.1997 11.6505 18.186C11.641 18.1808 11.6315 18.1754 11.622 18.1699C11.6005 18.1572 11.5795 18.1439 11.5589 18.1296C11.5473 18.1215 11.5355 18.1129 11.5238 18.1041L11.5122 18.0952C11.5106 18.0939 11.509 18.0926 11.5073 18.0913L11.4703 18.0575L11.4287 18.022L8.28536 14.9495C8.03687 14.6956 7.6305 14.6886 7.37335 14.9337C7.15433 15.1424 7.1226 15.4739 7.28122 15.716L7.34963 15.8021L8.92394 17.4195L10.3519 18.8683L11.8638 20.3778L12.9487 21.4397L13.6979 22.1578L14.1885 22.6181L14.6166 23.0103L14.9808 23.3335L15.1876 23.5101C16.3966 24.5226 18.7756 24.859 19.81 24.1683C21.2171 23.2288 22.4105 21.9343 22.9489 20.7504L23.0184 20.5862L23.0971 20.3797L23.2321 19.9907L23.3873 19.5073L23.6251 18.717L23.9714 17.497L24.4572 15.6964L25.0181 13.5333C25.0513 13.4031 25.0848 13.2713 25.1187 13.1379C25.2074 12.7885 24.9961 12.4334 24.6473 12.3448L24.6332 12.3414C24.2729 12.2582 23.9114 12.4496 23.7723 12.7818L23.74 12.8758L22.465 17.569L22.4607 17.5852C22.4544 17.6071 22.4473 17.6289 22.4394 17.6505L22.465 17.569C22.4541 17.6093 22.4408 17.6483 22.4254 17.686C22.4182 17.7041 22.4103 17.7219 22.4019 17.7395C22.3922 17.7594 22.3824 17.7783 22.372 17.7968C22.3666 17.8064 22.3608 17.8165 22.3547 17.8265C22.3397 17.8512 22.3242 17.8744 22.3078 17.8968C22.3005 17.9065 22.2926 17.9169 22.2845 17.9272C22.2662 17.9504 22.2476 17.972 22.2281 17.9927C22.2245 17.9962 22.2208 18.0001 22.217 18.0039L22.2036 18.0177C22.1832 18.0378 22.162 18.057 22.1401 18.0753L22.217 18.0039C22.1833 18.0387 22.1476 18.0704 22.1104 18.0992C22.0919 18.1132 22.0726 18.1271 22.0528 18.1402C22.0387 18.1498 22.0248 18.1585 22.0109 18.1669C21.9909 18.1784 21.97 18.1898 21.9487 18.2005C21.935 18.2078 21.9215 18.2141 21.908 18.2202C21.887 18.2293 21.8654 18.238 21.8436 18.2461C21.8285 18.2517 21.814 18.2567 21.7994 18.2612C21.7909 18.2638 21.7816 18.2666 21.7723 18.2692L21.7994 18.2612C21.7542 18.2754 21.7082 18.2862 21.6617 18.2938C21.598 18.3044 21.5323 18.3088 21.466 18.3065L21.4551 18.3059C21.4332 18.3049 21.4114 18.3032 21.3896 18.3008C21.3759 18.2993 21.3615 18.2974 21.3471 18.2952C21.32 18.291 21.2936 18.2859 21.2673 18.2796C21.2579 18.2772 21.2479 18.2746 21.2378 18.2719L21.2217 18.2676C21.1998 18.2613 21.178 18.2542 21.1564 18.2463L21.2378 18.2719C21.1979 18.261 21.1592 18.2479 21.1219 18.2327C21.0956 18.2222 21.0697 18.2103 21.0443 18.1973C21.0357 18.1928 21.0275 18.1885 21.0193 18.184C20.9989 18.1729 20.9787 18.1609 20.9589 18.1481C20.9432 18.138 20.928 18.1277 20.9132 18.1169C20.9081 18.1131 20.9032 18.1095 20.8983 18.1058L20.8729 18.0861C20.8551 18.0718 20.8378 18.0568 20.8211 18.0414L20.803 18.0239L10.8761 8.37398C10.7154 8.2177 10.4704 8.20135 10.2916 8.32326ZM15.8651 5.81603C16.1905 5.95095 16.5088 6.10179 16.819 6.26794C17.1292 6.43409 17.431 6.6154 17.7234 6.81112C18.3083 7.2027 18.8537 7.65087 19.3515 8.14859C19.8492 8.64629 20.2973 9.19169 20.6889 9.77664C20.9962 10.2356 20.8732 10.8567 20.4143 11.1639C19.9553 11.4712 19.3342 11.3482 19.027 10.8893C18.708 10.4128 18.3428 9.96838 17.9373 9.56281C17.5317 9.15722 17.0873 8.79205 16.6108 8.47308C16.3728 8.31375 16.1271 8.16619 15.8747 8.03099C15.6224 7.89585 15.3636 7.77319 15.099 7.6635C14.5889 7.45196 14.3468 6.8669 14.5583 6.35674C14.7699 5.84657 15.3549 5.60449 15.8651 5.81603Z" fill="#A5ACBB"/>
</svg>
