<svg width="32" height="32" viewBox="0 0 32 32" fill="none" xmlns="http://www.w3.org/2000/svg">
<g clip-path="url(#clip0_587_53435)">
<path d="M10.2105 8.39348L10.2916 8.32331C10.4704 8.2014 10.7154 8.21775 10.8761 8.37403L20.803 18.024L20.8211 18.0414C20.8378 18.0569 20.8551 18.0718 20.8729 18.0862L20.8983 18.1058L20.9132 18.1169C20.928 18.1277 20.9432 18.1381 20.9588 18.1481C20.9787 18.1609 20.9989 18.173 21.0193 18.1841L21.0443 18.1974C21.0697 18.2104 21.0956 18.2223 21.1219 18.2328C21.135 18.2381 21.1483 18.2432 21.1618 18.248L21.1564 18.2463C21.178 18.2542 21.1998 18.2613 21.2217 18.2677L21.2378 18.2719L21.2673 18.2797C21.2935 18.2859 21.32 18.2911 21.3471 18.2952C21.3615 18.2975 21.3759 18.2994 21.3896 18.3009C21.4114 18.3033 21.4332 18.305 21.4551 18.306L21.466 18.3065C21.5323 18.3089 21.598 18.3045 21.6617 18.2939C21.7082 18.2863 21.7542 18.2754 21.7994 18.2613C21.814 18.2567 21.8285 18.2518 21.8436 18.2461C21.8654 18.2381 21.887 18.2293 21.908 18.2202C21.9215 18.2142 21.935 18.2078 21.9487 18.2006C21.97 18.1899 21.9909 18.1784 22.0109 18.1669C22.0248 18.1586 22.0387 18.1499 22.0528 18.1402C22.0726 18.1271 22.0919 18.1133 22.1104 18.0992C22.1244 18.0884 22.1383 18.0771 22.1519 18.0653C22.1697 18.0501 22.1869 18.0342 22.2036 18.0177L22.213 18.0081C22.2144 18.0067 22.2157 18.0054 22.217 18.004L22.2281 17.9927C22.2476 17.972 22.2662 17.9505 22.2844 17.9273C22.2926 17.917 22.3005 17.9066 22.3078 17.8968C22.3242 17.8744 22.3397 17.8512 22.3547 17.8265C22.3608 17.8166 22.3666 17.8065 22.372 17.7968C22.3824 17.7783 22.3922 17.7594 22.4019 17.7396C22.4103 17.722 22.4182 17.7041 22.4254 17.6861C22.4308 17.6728 22.436 17.6594 22.4409 17.6458L22.4394 17.6505C22.4473 17.629 22.4544 17.6072 22.4607 17.5852L22.465 17.5691L23.74 12.8759L23.7723 12.7819C23.9114 12.4496 24.2729 12.2582 24.6332 12.3415L24.6473 12.3449C24.9961 12.4334 25.2074 12.7886 25.1187 13.1379L25.0181 13.5333L24.4572 15.6964L23.9714 17.4971L23.6251 18.7171L23.3873 19.5073L23.2321 19.9907L23.0971 20.3797L23.0184 20.5863L22.9489 20.7504C22.4105 21.9344 21.2171 23.2288 19.81 24.1684C18.7756 24.859 16.3966 24.5226 15.1876 23.5101L14.9808 23.3335L14.6166 23.0104L14.1885 22.6182L13.6979 22.1578L12.9487 21.4398L11.8638 20.3778L10.3519 18.8683L8.92394 17.4196L7.34963 15.8022L7.28122 15.716C7.1226 15.4739 7.15433 15.1425 7.37335 14.9337C7.6305 14.6886 8.03687 14.6957 8.28535 14.9495L11.4287 18.0221L11.4702 18.0576L11.5073 18.0914L11.5122 18.0952L11.5238 18.1042C11.5355 18.113 11.5473 18.1215 11.5589 18.1297C11.5795 18.1439 11.6005 18.1573 11.622 18.1699C11.6315 18.1755 11.641 18.1809 11.6505 18.186C11.6758 18.1998 11.7016 18.2124 11.7281 18.2239C11.7383 18.2283 11.7485 18.2326 11.7585 18.2365C11.7846 18.2469 11.811 18.2561 11.8377 18.2641C11.8519 18.2684 11.8661 18.2724 11.8805 18.276C11.9068 18.2827 11.9333 18.2883 11.9595 18.2927L11.9809 18.2961C12.0111 18.3006 12.0416 18.3037 12.072 18.3054C12.0853 18.3061 12.0987 18.3066 12.1118 18.3068C12.1397 18.3072 12.1676 18.3065 12.1961 18.3046L12.2115 18.3034C12.2438 18.3007 12.276 18.2964 12.3074 18.2907C12.3256 18.2874 12.3437 18.2836 12.3619 18.2792C12.3813 18.2746 12.4005 18.2694 12.4195 18.2635C12.4362 18.2585 12.4527 18.253 12.4692 18.247C12.4928 18.2385 12.5162 18.229 12.5391 18.2186C12.5565 18.2108 12.5736 18.2024 12.5906 18.1936C12.6055 18.1858 12.6204 18.1775 12.6352 18.1688C12.6588 18.1549 12.6819 18.1399 12.7047 18.1238C12.7167 18.1153 12.7286 18.1065 12.7402 18.0974L12.7496 18.0901C12.7765 18.0686 12.8029 18.0453 12.8281 18.0206L12.8428 18.0059C12.8591 17.9892 12.8746 17.9722 12.8894 17.9549C12.8985 17.9442 12.9074 17.9334 12.9161 17.9221C12.9293 17.9053 12.9418 17.8882 12.9535 17.8711C12.9666 17.852 12.979 17.8325 12.9907 17.8125C12.9993 17.7978 13.0075 17.783 13.0153 17.7681C13.0246 17.7501 13.0334 17.7319 13.0415 17.7136C13.0513 17.6915 13.0603 17.6692 13.0685 17.6464C13.0744 17.63 13.0799 17.6135 13.0849 17.597C13.0892 17.5827 13.0931 17.5685 13.0968 17.554C13.1128 17.4911 13.1226 17.4269 13.1261 17.3625C13.1269 17.3492 13.1273 17.3358 13.1275 17.3223C13.1281 17.2872 13.1268 17.252 13.1236 17.217C13.1209 17.1867 13.1168 17.1566 13.1114 17.1272C13.1081 17.109 13.1043 17.0909 13.1 17.0726C13.0953 17.0533 13.0901 17.034 13.0843 17.015C13.0788 16.9968 13.0727 16.9787 13.0659 16.9603C13.0585 16.9401 13.0504 16.9201 13.042 16.9013C13.0174 16.8458 12.9875 16.7921 12.9526 16.7414C12.9405 16.7237 12.9277 16.7064 12.9144 16.6895L12.9109 16.685C12.8894 16.658 12.8661 16.6316 12.8414 16.6065L7.33335 10.9933L7.26802 10.9054C7.1437 10.6949 7.18364 10.4189 7.37528 10.2532C7.66898 9.99911 8.10879 10.0141 8.38455 10.2875L8.74025 10.6396L8.82972 10.7336L13.8417 15.6986L13.8912 15.7426L13.9359 15.781C14.0671 15.8821 14.2176 15.9462 14.3732 15.9732L14.4912 15.9867L14.6087 15.9861L14.7266 15.9717C14.8431 15.9504 14.9565 15.9082 15.061 15.8453L15.1617 15.7758L15.2555 15.6922C15.3154 15.6319 15.3659 15.5658 15.4075 15.4955C15.6345 15.1105 15.5813 14.6066 15.2493 14.2777L10.2072 9.27755L10.1629 9.22537C9.9879 8.97963 9.99808 8.63974 10.2013 8.40386L10.2105 8.39348Z" fill="#C6D300"/>
<path d="M12.8986 16.6715L12.8414 16.6065L12.8922 16.6646L12.8986 16.6715Z" fill="#C6D300"/>
<path d="M12.7703 18.0712L12.8281 18.0206L12.7982 18.0456L12.7703 18.0712Z" fill="#C6D300"/>
<path fill-rule="evenodd" clip-rule="evenodd" d="M4 0C1.79086 0 0 1.79086 0 4V28C0 30.2091 1.79086 32 4 32H28C30.2091 32 32 30.2091 32 28V4C32 1.79086 30.2091 0 28 0H4ZM12.2702 6.93994L12.1397 6.82172C11.1599 5.99515 9.69326 6.05592 8.78604 6.98924L8.68601 7.09851C8.43062 7.39496 8.25146 7.73249 8.14921 8.0872C7.4188 8.01039 6.66167 8.22603 6.06686 8.74054C5.01586 9.64965 4.90085 11.2387 5.80997 12.2897L5.84882 12.3334L6.56915 13.0682C6.36403 13.1784 6.17011 13.3176 5.99345 13.486C4.9475 14.4829 4.90778 16.1391 5.90474 17.185L6.59094 17.8925L8.16384 19.5L9.03263 20.3783L10.1009 21.4466L11.0634 22.3956L12.1132 23.4104L12.8266 24.0824L13.286 24.5032L13.679 24.8517L13.9035 25.0434C15.7466 26.5871 19.0827 27.0588 20.9205 25.8317C22.6182 24.6982 24.0638 23.1301 24.7694 21.5784C24.7825 21.5496 24.7959 21.5192 24.8096 21.4871L24.8958 21.275L24.9898 21.023L25.1456 20.5699L25.3193 20.0262L25.5793 19.1593L25.872 18.1285L26.1135 17.2472L26.4651 15.9264L27.0572 13.6301C27.4177 12.2101 26.5588 10.7668 25.1389 10.4062L24.9168 10.3596C23.5336 10.1273 22.1825 10.9799 21.8099 12.3516L20.9792 15.4066L12.2702 6.93994ZM8.47474 21.7577C8.09101 21.3315 7.74957 20.8686 7.45592 20.3761C7.17311 19.9017 6.55928 19.7464 6.0849 20.0292C5.61053 20.312 5.45523 20.9259 5.73805 21.4002C6.09853 22.0049 6.51756 22.573 6.98848 23.096C7.45948 23.6191 7.98065 24.0952 8.54426 24.5168C8.82584 24.7275 9.11779 24.9243 9.41899 25.1066C9.72027 25.2888 10.0303 25.4562 10.348 25.6078C10.8464 25.8458 11.4433 25.6346 11.6812 25.1362C11.9192 24.6378 11.708 24.0409 11.2096 23.803C10.9514 23.6797 10.6993 23.5436 10.4542 23.3954C10.2092 23.2471 9.97155 23.0869 9.74234 22.9154C9.28326 22.5719 8.85858 22.184 8.47474 21.7577ZM16.819 6.26799C16.5088 6.10185 16.1905 5.951 15.8651 5.81608C15.3549 5.60454 14.7699 5.84662 14.5583 6.35679C14.3468 6.86695 14.5889 7.45201 15.099 7.66355C15.3636 7.77324 15.6224 7.8959 15.8747 8.03104C16.1271 8.16624 16.3728 8.3138 16.6108 8.47313C17.0873 8.7921 17.5316 9.15727 17.9372 9.56287C18.3428 9.96843 18.708 10.4128 19.027 10.8893C19.3342 11.3482 19.9553 11.4712 20.4143 11.164C20.8732 10.8567 20.9962 10.2356 20.6889 9.7767C20.2973 9.19174 19.8492 8.64634 19.3515 8.14864C18.8537 7.65093 18.3083 7.20275 17.7234 6.81117C17.431 6.61545 17.1292 6.43414 16.819 6.26799Z" fill="#C6D300"/>
</g>
<defs>
<clipPath id="clip0_587_53435">
<rect width="32" height="32" rx="4" fill="white"/>
</clipPath>
</defs>
</svg>
