<svg width="229" height="229" viewBox="0 0 229 229" fill="none" xmlns="http://www.w3.org/2000/svg">
<g clip-path="url(#clip0_1957_4792)">
<path d="M192.946 114.024C192.946 94.4393 177.069 78.5625 157.484 78.5625V149.486C177.069 149.486 192.946 133.609 192.946 114.024Z" fill="#C6D300"/>
<path d="M228.108 228.108C228.108 189.104 196.488 157.484 157.484 157.484V228.108H228.108Z" fill="#EE746D"/>
<path d="M45.6218 45.6523H0V91.2741H45.6218V45.6523Z" fill="#4C4898"/>
<path d="M45.6218 136.867H0V182.489H45.6218V136.867Z" fill="#4C4898"/>
<path d="M157.485 78.5617V0H45.6211V45.653H91.2429V91.2747H45.6211V136.865H91.2429V182.487H45.6211V228.109H86.8621C86.8621 189.105 118.481 157.486 157.485 157.486V149.485C137.9 149.485 122.023 133.609 122.023 114.023C122.023 94.4384 137.9 78.5617 157.485 78.5617H157.485Z" fill="#4C4898"/>
</g>
<defs>
<clipPath id="clip0_1957_4792">
<rect width="228.109" height="228.109" fill="white"/>
</clipPath>
</defs>
</svg>
