<svg width="230" height="229" viewBox="0 0 230 229" fill="none" xmlns="http://www.w3.org/2000/svg">
<g clip-path="url(#clip0_1957_4805)">
<path d="M114.195 36.0964C129.816 36.0964 142.524 48.8049 142.524 64.4258H178.621C178.621 28.8442 149.777 0 114.195 0C78.6138 0 49.7695 28.8442 49.7695 64.4258H85.866C85.866 48.8049 98.5744 36.0964 114.195 36.0964V36.0964Z" fill="#EE746D"/>
<path d="M85.7183 122.219C84.3418 121.539 82.9946 120.808 81.6758 120.035C82.9951 120.808 84.3413 121.539 85.7183 122.219Z" fill="#E30613"/>
<path d="M89.8412 124.071C89.3018 123.851 88.7664 123.622 88.2344 123.387C88.7667 123.621 89.3015 123.851 89.8412 124.071Z" fill="#E30613"/>
<path d="M87.4313 123.026C86.8597 122.764 86.289 122.501 85.7266 122.223C86.2892 122.5 86.8595 122.764 87.4313 123.026Z" fill="#E30613"/>
<path d="M140.611 123.184C139.971 123.472 139.327 123.756 138.676 124.024C139.328 123.756 139.97 123.472 140.611 123.184Z" fill="#E30613"/>
<path d="M138.578 124.062C137.33 124.574 136.059 125.04 134.773 125.475C136.06 125.041 137.33 124.573 138.578 124.062Z" fill="#E30613"/>
<path d="M93.0202 125.273C92.2779 125.014 91.5422 124.742 90.8125 124.457C91.5424 124.742 92.2776 125.014 93.0202 125.273Z" fill="#E30613"/>
<path d="M143.038 122.031C142.397 122.354 141.748 122.664 141.094 122.965C141.748 122.664 142.396 122.353 143.038 122.031Z" fill="#E30613"/>
<path d="M98.7516 126.973C98.3237 126.867 97.8971 126.759 97.4727 126.645C97.8973 126.759 98.3235 126.868 98.7516 126.973Z" fill="#E30613"/>
<path d="M111.204 128.777C110.894 128.763 110.586 128.741 110.277 128.723C110.586 128.741 110.894 128.763 111.204 128.777Z" fill="#E30613"/>
<path d="M108.189 128.562C107.854 128.531 107.52 128.501 107.188 128.465C107.52 128.501 107.854 128.531 108.189 128.562Z" fill="#E30613"/>
<path d="M133.9 125.77C133.392 125.933 132.878 126.084 132.363 126.236C132.878 126.085 133.391 125.933 133.9 125.77Z" fill="#E30613"/>
<path d="M96.0165 126.231C95.5781 126.102 95.1376 125.978 94.7031 125.84C95.1378 125.978 95.5779 126.102 96.0165 126.231Z" fill="#E30613"/>
<path d="M101.52 127.599C101.148 127.525 100.78 127.44 100.41 127.359C100.78 127.44 101.148 127.525 101.52 127.599Z" fill="#E30613"/>
<path d="M104.972 128.185C104.732 128.15 104.489 128.123 104.25 128.086C104.489 128.123 104.732 128.15 104.972 128.185Z" fill="#E30613"/>
<path d="M81.4871 119.926C80.8855 119.57 80.292 119.202 79.7031 118.828C80.2922 119.202 80.8853 119.57 81.4871 119.926Z" fill="#E30613"/>
<path d="M128.123 127.324C127.729 127.411 127.338 127.505 126.941 127.584C127.338 127.505 127.729 127.411 128.123 127.324Z" fill="#E30613"/>
<path d="M121.266 128.457C120.911 128.496 120.555 128.53 120.199 128.563C120.556 128.53 120.911 128.496 121.266 128.457Z" fill="#E30613"/>
<path d="M118.15 128.719C117.833 128.738 117.517 128.761 117.199 128.775C117.517 128.761 117.833 128.738 118.15 128.719Z" fill="#E30613"/>
<path d="M124.23 128.07C123.914 128.12 123.595 128.158 123.277 128.203C123.595 128.158 123.914 128.12 124.23 128.07Z" fill="#E30613"/>
<path d="M131.116 126.59C130.645 126.718 130.171 126.843 129.695 126.961C130.172 126.844 130.644 126.718 131.116 126.59Z" fill="#E30613"/>
<path d="M94.7012 125.842C94.1359 125.663 93.5779 125.468 93.0195 125.273C93.5778 125.468 94.1361 125.663 94.7012 125.842Z" fill="#FFED00"/>
<path d="M97.4706 126.647C96.9827 126.517 96.4989 126.376 96.0156 126.234C96.4988 126.376 96.9827 126.516 97.4706 126.647Z" fill="#FFED00"/>
<path d="M114.196 128.853H114.196C113.192 128.853 112.196 128.823 111.203 128.777C112.196 128.823 113.192 128.853 114.196 128.853Z" fill="#FFED00"/>
<path d="M107.19 128.465C106.447 128.385 105.708 128.289 104.973 128.184C105.708 128.289 106.447 128.385 107.19 128.465Z" fill="#FFED00"/>
<path d="M120.202 128.562C119.522 128.625 118.838 128.677 118.152 128.718C118.838 128.677 119.522 128.626 120.202 128.562Z" fill="#FFED00"/>
<path d="M114.195 128.853C115.203 128.853 116.203 128.823 117.199 128.777C116.203 128.823 115.203 128.853 114.195 128.853Z" fill="#FFED00"/>
<path d="M134.774 125.477C134.484 125.574 134.195 125.678 133.902 125.772C134.195 125.677 134.484 125.575 134.774 125.477Z" fill="#FFED00"/>
<path d="M110.278 128.721C109.579 128.679 108.884 128.627 108.191 128.562C108.884 128.627 109.579 128.679 110.278 128.721Z" fill="#FFED00"/>
<path d="M104.248 128.085C103.331 127.943 102.423 127.778 101.52 127.598C102.423 127.778 103.331 127.943 104.248 128.085Z" fill="#FFED00"/>
<path d="M100.411 127.356C99.855 127.235 99.3008 127.108 98.75 126.973C99.3007 127.109 99.855 127.234 100.411 127.356Z" fill="#FFED00"/>
<path d="M142.526 64.4258H85.8672C85.8672 74.8293 91.5081 83.9352 99.8882 88.8612C99.9563 88.9014 100.025 88.9399 100.094 88.9795C101.213 89.6249 102.379 90.1963 103.587 90.6863C103.685 90.7258 103.783 90.7637 103.881 90.8023C104.472 91.0342 105.07 91.2521 105.679 91.4446C105.686 91.4469 105.693 91.4496 105.701 91.4519C106.311 91.6442 106.932 91.811 107.559 91.9622C107.69 91.9936 107.82 92.0232 107.951 92.053C108.561 92.1907 109.176 92.3147 109.8 92.4124C109.818 92.4152 109.835 92.4189 109.853 92.4218C110.485 92.5194 111.125 92.5891 111.77 92.6442C111.925 92.6573 112.079 92.6689 112.234 92.6796C112.883 92.7242 113.536 92.7551 114.196 92.7551H114.197C114.885 92.7551 115.566 92.7217 116.243 92.6731C116.387 92.6627 116.532 92.6527 116.676 92.6401C117.343 92.582 118.003 92.5048 118.656 92.4011C118.727 92.3897 118.798 92.3748 118.869 92.3628C119.496 92.2583 120.116 92.1318 120.728 91.9866C120.813 91.9664 120.899 91.9485 120.984 91.9275C121.645 91.7642 122.297 91.5771 122.939 91.3682C123.001 91.3481 123.062 91.3264 123.123 91.3059C124.456 90.8623 125.744 90.3223 126.981 89.6938C127.01 89.6794 127.038 89.6647 127.066 89.65C128.334 89.0005 129.546 88.2593 130.695 87.4333C130.696 87.4326 130.697 87.4323 130.697 87.4316H130.697C137.853 82.2847 142.526 73.8932 142.526 64.4258Z" fill="#4C4898"/>
<path d="M129.694 126.961C129.172 127.09 128.647 127.208 128.121 127.324C128.647 127.208 129.173 127.09 129.694 126.961Z" fill="#FFED00"/>
<path d="M79.7041 118.829C79.5654 118.74 79.4271 118.652 79.2891 118.562C79.4271 118.652 79.5654 118.74 79.7041 118.829Z" fill="#FFED00"/>
<path d="M90.8135 124.458C90.4883 124.331 90.1625 124.206 89.8398 124.074C90.1624 124.206 90.4883 124.331 90.8135 124.458Z" fill="#FFED00"/>
<path d="M143.237 121.93C143.171 121.963 143.105 121.998 143.039 122.031C143.105 121.998 143.171 121.963 143.237 121.93Z" fill="#FFED00"/>
<path d="M138.677 124.023C138.644 124.037 138.611 124.049 138.578 124.062C138.611 124.049 138.644 124.037 138.677 124.023Z" fill="#FFED00"/>
<path d="M132.366 126.234C131.951 126.356 131.535 126.476 131.117 126.589C131.535 126.475 131.951 126.356 132.366 126.234Z" fill="#FFED00"/>
<path d="M141.095 122.965C140.935 123.039 140.774 123.11 140.613 123.183C140.774 123.11 140.935 123.039 141.095 122.965Z" fill="#FFED00"/>
<path d="M123.277 128.203C122.61 128.297 121.94 128.385 121.266 128.459C121.94 128.385 122.61 128.298 123.277 128.203Z" fill="#FFED00"/>
<path d="M81.6774 120.035C81.6147 119.998 81.5508 119.963 81.4883 119.926C81.5508 119.963 81.6146 119.998 81.6774 120.035Z" fill="#FFED00"/>
<path d="M88.2327 123.386C87.9637 123.268 87.6968 123.146 87.4297 123.023C87.6967 123.146 87.9638 123.268 88.2327 123.386Z" fill="#FFED00"/>
<path d="M126.939 127.586C126.043 127.766 125.14 127.927 124.23 128.07C125.14 127.927 126.043 127.766 126.939 127.586Z" fill="#FFED00"/>
<path d="M85.7241 122.221C85.7223 122.221 85.7206 122.22 85.7188 122.219C85.7205 122.22 85.7223 122.221 85.7241 122.221Z" fill="#FFED00"/>
<path d="M228.109 226.578V228.109H229.181L228.109 226.578Z" fill="#FFED00"/>
<path d="M178.621 64.4258C178.621 86.1427 167.865 105.335 151.401 117.006C140.89 124.457 128.06 128.852 114.195 128.852C100.563 128.852 87.9286 124.606 77.5175 117.382C60.7545 105.749 49.7696 86.375 49.7696 64.4258H0V228.109H228.109V64.4258H178.621Z" fill="#4C4898"/>
<path d="M114.194 155.668H114.194C101.596 155.668 91.3828 165.881 91.3828 178.479V178.479C91.3828 191.077 101.596 201.29 114.194 201.29H114.194C126.792 201.29 137.005 191.077 137.005 178.479V178.479C137.005 165.881 126.792 155.668 114.194 155.668Z" fill="#C6D300"/>
</g>
<defs>
<clipPath id="clip0_1957_4805">
<rect width="229.181" height="228.109" fill="white"/>
</clipPath>
</defs>
</svg>
