<svg width="32" height="32" viewBox="0 0 32 32" fill="none" xmlns="http://www.w3.org/2000/svg">
<path fill-rule="evenodd" clip-rule="evenodd" d="M5 8C5 6.34315 6.34315 5 8 5C9.3062 5 10.4175 5.8348 10.8293 7H14C15.6568 7 17 8.34314 17 10V21.5C17 22.0523 17.4477 22.5 18 22.5H23.5858L22.7929 21.7071C22.4024 21.3166 22.4024 20.6834 22.7929 20.2929C23.1834 19.9024 23.8166 19.9024 24.2071 20.2929L26.7071 22.7929C27.0976 23.1834 27.0976 23.8166 26.7071 24.2071L24.2071 26.7071C23.8166 27.0976 23.1834 27.0976 22.7929 26.7071C22.4024 26.3166 22.4024 25.6834 22.7929 25.2929L23.5858 24.5H18C16.3432 24.5 15 23.1568 15 21.5V10C15 9.44772 14.5523 9 14 9H10.8293C10.4174 10.1652 9.3062 11 8 11C6.34314 11 5 9.65683 5 8ZM8 7C7.44771 7 7 7.44771 7 8C7 8.55227 7.44772 9 8 9C8.55227 9 9 8.55227 9 8C9 7.44772 8.55227 7 8 7Z" fill="#C6D300"/>
</svg>
