<svg width="32" height="32" viewBox="0 0 32 32" fill="none" xmlns="http://www.w3.org/2000/svg">
<g clip-path="url(#clip0_587_53459)">
<path d="M7 8C7 7.44771 7.44771 7 8 7C8.55227 7 9 7.44772 9 8C9 8.55227 8.55227 9 8 9C7.44772 9 7 8.55227 7 8Z" fill="#C6D300"/>
<path fill-rule="evenodd" clip-rule="evenodd" d="M4 0C1.79086 0 0 1.79086 0 4V28C0 30.2091 1.79086 32 4 32H28C30.2091 32 32 30.2091 32 28V4C32 1.79086 30.2091 0 28 0H4ZM8 5C6.34315 5 5 6.34315 5 8C5 9.65683 6.34314 11 8 11C9.3062 11 10.4174 10.1652 10.8293 9H14C14.5523 9 15 9.44772 15 10V21.5C15 23.1568 16.3432 24.5 18 24.5H23.5858L22.7929 25.2929C22.4024 25.6834 22.4024 26.3166 22.7929 26.7071C23.1834 27.0976 23.8166 27.0976 24.2071 26.7071L26.7071 24.2071C27.0976 23.8166 27.0976 23.1834 26.7071 22.7929L24.2071 20.2929C23.8166 19.9024 23.1834 19.9024 22.7929 20.2929C22.4024 20.6834 22.4024 21.3166 22.7929 21.7071L23.5858 22.5H18C17.4477 22.5 17 22.0523 17 21.5V10C17 8.34314 15.6568 7 14 7H10.8293C10.4175 5.8348 9.3062 5 8 5Z" fill="#C6D300"/>
</g>
<defs>
<clipPath id="clip0_587_53459">
<rect width="32" height="32" rx="4" fill="white"/>
</clipPath>
</defs>
</svg>
