<svg width="32" height="32" viewBox="0 0 32 32" fill="none" xmlns="http://www.w3.org/2000/svg">
<path fill-rule="evenodd" clip-rule="evenodd" d="M12.6666 5.91667C12.6666 5.38739 13.0956 4.95833 13.6249 4.95833H19.3749C19.9042 4.95833 20.3333 5.38739 20.3333 5.91667V11.6667H26.0833C26.6125 11.6667 27.0416 12.0957 27.0416 12.625V18.375C27.0416 18.9043 26.6125 19.3333 26.0833 19.3333H20.3333V25.0833C20.3333 25.6126 19.9042 26.0417 19.3749 26.0417H13.6249C13.0956 26.0417 12.6666 25.6126 12.6666 25.0833V19.3333H6.91659C6.38731 19.3333 5.95825 18.9043 5.95825 18.375V12.625C5.95825 12.0957 6.38731 11.6667 6.91659 11.6667H12.6666V5.91667ZM14.5833 6.875V12.625C14.5833 13.1543 14.1542 13.5833 13.6249 13.5833H7.87492V17.4167H13.6249C14.1542 17.4167 14.5833 17.8457 14.5833 18.375V24.125H18.4166V18.375C18.4166 17.8457 18.8456 17.4167 19.3749 17.4167H25.1249V13.5833H19.3749C18.8456 13.5833 18.4166 13.1543 18.4166 12.625V6.875H14.5833Z" fill="#4C4898"/>
</svg>
