<svg width="33" height="32" viewBox="0 0 33 32" fill="none" xmlns="http://www.w3.org/2000/svg">
<path fill-rule="evenodd" clip-rule="evenodd" d="M13.6666 5.91665C13.6666 5.38737 14.0956 4.95831 14.6249 4.95831H20.3749C20.9042 4.95831 21.3333 5.38737 21.3333 5.91665V11.6666H27.0833C27.6125 11.6666 28.0416 12.0957 28.0416 12.625V18.375C28.0416 18.9043 27.6125 19.3333 27.0833 19.3333H21.3333V25.0833C21.3333 25.6126 20.9042 26.0416 20.3749 26.0416H14.6249C14.0956 26.0416 13.6666 25.6126 13.6666 25.0833V19.3333H7.91659C7.38731 19.3333 6.95825 18.9043 6.95825 18.375V12.625C6.95825 12.0957 7.38731 11.6666 7.91659 11.6666H13.6666V5.91665ZM15.5833 6.87498V12.625C15.5833 13.1543 15.1542 13.5833 14.6249 13.5833H8.87492V17.4166H14.6249C15.1542 17.4166 15.5833 17.8457 15.5833 18.375V24.125H19.4166V18.375C19.4166 17.8457 19.8456 17.4166 20.3749 17.4166H26.1249V13.5833H20.3749C19.8456 13.5833 19.4166 13.1543 19.4166 12.625V6.87498H15.5833Z" fill="#4C4898"/>
</svg>
