<svg width="32" height="32" viewBox="0 0 32 32" fill="none" xmlns="http://www.w3.org/2000/svg">
<g clip-path="url(#clip0_156_1452)">
<mask id="mask0_156_1452" style="mask-type:luminance" maskUnits="userSpaceOnUse" x="0" y="0" width="32" height="32">
<path d="M28 0H4C1.79086 0 0 1.79086 0 4V28C0 30.2091 1.79086 32 4 32H28C30.2091 32 32 30.2091 32 28V4C32 1.79086 30.2091 0 28 0Z" fill="white"/>
</mask>
<g mask="url(#mask0_156_1452)">
<path fill-rule="evenodd" clip-rule="evenodd" d="M0 4C0 1.79086 1.79086 0 4 0H28C30.2091 0 32 1.79086 32 4V28C32 30.2091 30.2091 32 28 32H4C1.79086 32 0 30.2091 0 28V4ZM13.6249 4.95833C13.0956 4.95833 12.6666 5.38739 12.6666 5.91667V11.6667H6.91659C6.38731 11.6667 5.95825 12.0957 5.95825 12.625V18.375C5.95825 18.9043 6.38731 19.3333 6.91659 19.3333H12.6666V25.0833C12.6666 25.6126 13.0956 26.0417 13.6249 26.0417H19.3749C19.9042 26.0417 20.3333 25.6126 20.3333 25.0833V19.3333H26.0833C26.6125 19.3333 27.0416 18.9043 27.0416 18.375V12.625C27.0416 12.0957 26.6125 11.6667 26.0833 11.6667H20.3333V5.91667C20.3333 5.38739 19.9042 4.95833 19.3749 4.95833H13.6249ZM14.5833 12.625V6.875H18.4166V12.625C18.4166 13.1543 18.8456 13.5833 19.3749 13.5833H25.1249V17.4167H19.3749C18.8456 17.4167 18.4166 17.8457 18.4166 18.375V24.125H14.5833V18.375C14.5833 17.8457 14.1542 17.4167 13.6249 17.4167H7.87492V13.5833H13.6249C14.1542 13.5833 14.5833 13.1543 14.5833 12.625Z" fill="#C6D300"/>
</g>
</g>
<defs>
<clipPath id="clip0_156_1452">
<rect width="32" height="32" fill="white"/>
</clipPath>
</defs>
</svg>
