<svg width="32" height="32" viewBox="0 0 32 32" fill="none" xmlns="http://www.w3.org/2000/svg">
<path d="M22 5.5C22.5523 5.5 23 5.94772 23 6.5V19.5C23 20.0128 22.614 20.4355 22.1166 20.4933L22 20.5H10C9.11154 20.5 8.35445 21.0846 8.0954 21.8898C8.03321 22.0823 8 22.2873 8 22.5C8 23.5544 8.81588 24.4182 9.85074 24.4945L10 24.5H24V7.5C24 6.98716 24.386 6.56449 24.8834 6.50673L25 6.5C25.5128 6.5 25.9355 6.88604 25.9933 7.38338L26 7.5V25.5C26 26.0128 25.614 26.4355 25.1166 26.4933L25 26.5H10C7.79086 26.5 6 24.7091 6 22.5V9.5C6 7.29086 7.79086 5.5 10 5.5H22ZM21.5 21.5C22.0523 21.5 22.5 21.9477 22.5 22.5C22.5 23.0128 22.114 23.4355 21.6166 23.4933L21.5 23.5H10.5C9.94772 23.5 9.5 23.0523 9.5 22.5C9.5 21.9872 9.88604 21.5645 10.3834 21.5067L10.5 21.5H21.5ZM21 7.5H10C8.89543 7.5 8 8.39543 8 9.5L7.99953 19.0354C8.11481 18.9687 8.23374 18.9076 8.35593 18.8524C8.36181 18.8508 8.36715 18.8484 8.37249 18.846C8.43466 18.8172 8.49827 18.7908 8.56269 18.766C8.57591 18.7618 8.58896 18.7568 8.60203 18.7519C8.7484 18.6965 8.89896 18.6502 9.05302 18.6128C9.0588 18.6118 9.06411 18.6105 9.06942 18.6092L9.05302 18.6128C9.1236 18.5956 9.19492 18.5804 9.26692 18.567C9.28868 18.5633 9.31034 18.5594 9.33207 18.5557C9.38708 18.5463 9.44253 18.5381 9.49833 18.5312C9.59776 18.5188 9.69876 18.5099 9.80075 18.5049L9.57272 18.5226C9.648 18.5146 9.7239 18.5087 9.80036 18.5049L10 18.5H21V7.5Z" fill="#C6D300"/>
</svg>
