<svg width="32" height="32" viewBox="0 0 32 32" fill="none" xmlns="http://www.w3.org/2000/svg">
<g clip-path="url(#clip0_587_53443)">
<path d="M10 7.5H21V18.5H10L9.80036 18.5049C9.7239 18.5087 9.648 18.5146 9.57272 18.5226L9.57408 18.5224C9.54874 18.5251 9.52348 18.528 9.49833 18.5312C9.44253 18.5381 9.38708 18.5463 9.33207 18.5557L9.26692 18.567C9.19492 18.5804 9.1236 18.5956 9.05302 18.6128C8.89896 18.6502 8.7484 18.6965 8.60203 18.7519L8.59845 18.7533C8.58657 18.7577 8.57471 18.7621 8.56269 18.766C8.49827 18.7908 8.43466 18.8172 8.37249 18.846C8.36715 18.8484 8.36181 18.8508 8.35593 18.8524C8.23374 18.9076 8.11481 18.9687 7.99953 19.0354L8 9.5C8 8.39543 8.89543 7.5 10 7.5Z" fill="#C6D300"/>
<path d="M9.06942 18.6092L9.05302 18.6128C9.0588 18.6118 9.06411 18.6105 9.06942 18.6092Z" fill="#C6D300"/>
<path fill-rule="evenodd" clip-rule="evenodd" d="M4 0C1.79086 0 0 1.79086 0 4V28C0 30.2091 1.79086 32 4 32H28C30.2091 32 32 30.2091 32 28V4C32 1.79086 30.2091 0 28 0H4ZM23 6.5C23 5.94772 22.5523 5.5 22 5.5H10C7.79086 5.5 6 7.29086 6 9.5V22.5C6 24.7091 7.79086 26.5 10 26.5H25L25.1166 26.4933C25.614 26.4355 26 26.0128 26 25.5V7.5L25.9933 7.38338C25.9355 6.88604 25.5128 6.5 25 6.5L24.8834 6.50673C24.386 6.56449 24 6.98716 24 7.5V24.5H10L9.85074 24.4945C8.81588 24.4182 8 23.5544 8 22.5C8 22.2873 8.03321 22.0823 8.0954 21.8898C8.35445 21.0846 9.11154 20.5 10 20.5H22L22.1166 20.4933C22.614 20.4355 23 20.0128 23 19.5V6.5ZM22.5 22.5C22.5 21.9477 22.0523 21.5 21.5 21.5H10.5L10.3834 21.5067C9.88604 21.5645 9.5 21.9872 9.5 22.5C9.5 23.0523 9.94771 23.5 10.5 23.5H21.5L21.6166 23.4933C22.114 23.4355 22.5 23.0128 22.5 22.5Z" fill="#C6D300"/>
</g>
<defs>
<clipPath id="clip0_587_53443">
<rect width="32" height="32" rx="4" fill="white"/>
</clipPath>
</defs>
</svg>
