<svg width="32" height="32" viewBox="0 0 32 32" fill="none" xmlns="http://www.w3.org/2000/svg">
<g clip-path="url(#clip0_8_1360)">
<mask id="mask0_8_1360" style="mask-type:luminance" maskUnits="userSpaceOnUse" x="0" y="0" width="32" height="32">
<path d="M28 0H4C1.79086 0 0 1.79086 0 4V28C0 30.2091 1.79086 32 4 32H28C30.2091 32 32 30.2091 32 28V4C32 1.79086 30.2091 0 28 0Z" fill="white"/>
</mask>
<g mask="url(#mask0_8_1360)">
<path d="M28 0C30.2091 0 32 1.79086 32 4V28C32 30.2091 30.2091 32 28 32H4C1.79086 32 0 30.2091 0 28V4C0 1.79086 1.79086 0 4 0H28ZM8 5C6.34315 5 5 6.34315 5 8V24C5 25.6569 6.34315 27 8 27H24C25.6569 27 27 25.6569 27 24V8C27 6.34315 25.6569 5 24 5H8ZM24 7C24.5523 7 25 7.44771 25 8V24C25 24.5523 24.5523 25 24 25H8C7.44771 25 7 24.5523 7 24V8C7 7.44772 7.44772 7 8 7H24ZM10 19V21H20V19H10ZM10 15V17H19V15H10ZM10 11V13H22V11H10Z" fill="#C6D300"/>
</g>
</g>
<defs>
<clipPath id="clip0_8_1360">
<rect width="32" height="32" fill="white"/>
</clipPath>
</defs>
</svg>
