<svg width="32" height="32" viewBox="0 0 32 32" fill="none" xmlns="http://www.w3.org/2000/svg">
<path fill-rule="evenodd" clip-rule="evenodd" d="M18.5002 9C18.5002 7.067 20.0672 5.5 22.0002 5.5C23.9332 5.5 25.5002 7.067 25.5002 9C25.5002 10.933 23.9332 12.5 22.0002 12.5C20.0672 12.5 18.5002 10.933 18.5002 9ZM22.0002 7.5C21.1718 7.5 20.5002 8.17158 20.5002 9C20.5002 9.82842 21.1718 10.5 22.0002 10.5C22.8286 10.5 23.5002 9.82842 23.5002 9C23.5002 8.17158 22.8286 7.5 22.0002 7.5ZM13.6745 10.054C13.9229 9.96803 14.1952 9.98329 14.4325 10.0965L19.9309 12.7208C20.2471 12.8717 20.4613 13.1771 20.4954 13.5258C20.5296 13.8745 20.3787 14.2157 20.0978 14.425L15.7431 17.6712L20.05 20.5064C20.2805 20.6582 20.438 20.8984 20.4854 21.1702C20.5327 21.442 20.4656 21.7213 20.2999 21.942L16.8041 26.5993C16.4725 27.041 15.8457 27.1303 15.404 26.7988C14.9623 26.4672 14.873 25.8404 15.2046 25.3987L18.0619 21.5921L13.4519 18.5574C13.1795 18.3781 13.0117 18.0772 13.0022 17.7513C12.9926 17.4254 13.1426 17.1152 13.4041 16.9204L17.5739 13.812L13.9412 12.0782L10.3274 13.3295C9.80549 13.5102 9.23592 13.2336 9.05522 12.7117C8.87452 12.1899 9.1511 11.6203 9.67298 11.4396L13.6745 10.054ZM26.7289 12.0481C27.107 12.4506 27.0873 13.0835 26.6848 13.4617L23.6857 16.2797C23.3711 16.5752 22.9024 16.6356 22.5232 16.4294L21.1823 15.7002C20.6971 15.4363 20.5177 14.8291 20.7816 14.3439C21.0454 13.8588 21.6527 13.6793 22.1378 13.9432L22.8433 14.3269L25.3153 12.0041C25.7178 11.6259 26.3507 11.6457 26.7289 12.0481ZM13.0293 18.9762C13.4692 19.3102 13.5551 19.9375 13.2212 20.3774L11.7363 22.3333C11.6533 22.4426 11.5487 22.5336 11.429 22.6008L6.49134 25.3704C6.00965 25.6405 5.40015 25.4691 5.12996 24.9874C4.85978 24.5057 5.03124 23.8962 5.51292 23.626L10.2692 20.9582L11.6282 19.168C11.9621 18.7282 12.5895 18.6423 13.0293 18.9762Z" fill="#C6D300"/>
</svg>
