<svg width="32" height="32" viewBox="0 0 32 32" fill="none" xmlns="http://www.w3.org/2000/svg">
<rect width="32" height="32" rx="4" fill="#F7F9FC"/>
<path fill-rule="evenodd" clip-rule="evenodd" d="M18.5 9C18.5 7.067 20.067 5.5 22 5.5C23.933 5.5 25.5 7.067 25.5 9C25.5 10.933 23.933 12.5 22 12.5C20.067 12.5 18.5 10.933 18.5 9ZM22 7.5C21.1716 7.5 20.5 8.17158 20.5 9C20.5 9.82842 21.1716 10.5 22 10.5C22.8284 10.5 23.5 9.82842 23.5 9C23.5 8.17158 22.8284 7.5 22 7.5ZM13.6743 10.054C13.9228 9.96803 14.195 9.98329 14.4323 10.0965L19.9307 12.7208C20.2469 12.8717 20.4611 13.1771 20.4952 13.5258C20.5294 13.8745 20.3786 14.2157 20.0977 14.425L15.743 17.6712L20.0498 20.5064C20.2803 20.6582 20.4379 20.8984 20.4852 21.1702C20.5325 21.442 20.4654 21.7213 20.2998 21.942L16.8039 26.5993C16.4724 27.041 15.8455 27.1303 15.4038 26.7988C14.9621 26.4672 14.8728 25.8404 15.2044 25.3987L18.0617 21.5921L13.4517 18.5574C13.1793 18.3781 13.0115 18.0772 13.002 17.7513C12.9924 17.4254 13.1424 17.1152 13.4039 16.9204L17.5737 13.812L13.9411 12.0782L10.3272 13.3295C9.8053 13.5102 9.23574 13.2336 9.05504 12.7117C8.87433 12.1899 9.15091 11.6203 9.6728 11.4396L13.6743 10.054ZM26.7287 12.0481C27.1068 12.4506 27.0871 13.0835 26.6847 13.4617L23.6855 16.2797C23.3709 16.5752 22.9022 16.6356 22.523 16.4294L21.1821 15.7002C20.697 15.4363 20.5175 14.8291 20.7814 14.3439C21.0453 13.8588 21.6525 13.6793 22.1376 13.9432L22.8431 14.3269L25.3151 12.0041C25.7176 11.6259 26.3505 11.6457 26.7287 12.0481ZM13.0292 18.9762C13.469 19.3102 13.5549 19.9375 13.221 20.3774L11.7361 22.3333C11.6531 22.4426 11.5485 22.5336 11.4289 22.6008L6.49116 25.3704C6.00947 25.6405 5.39996 25.4691 5.12978 24.9874C4.8596 24.5057 5.03106 23.8962 5.51274 23.626L10.269 20.9582L11.628 19.168C11.962 18.7282 12.5893 18.6423 13.0292 18.9762Z" fill="#A5ACBB"/>
</svg>
