<svg width="32" height="32" viewBox="0 0 32 32" fill="none" xmlns="http://www.w3.org/2000/svg">
<g clip-path="url(#clip0_587_53464)">
<path d="M20.5 9C20.5 8.17158 21.1716 7.5 22 7.5C22.8284 7.5 23.5 8.17158 23.5 9C23.5 9.82841 22.8284 10.5 22 10.5C21.1716 10.5 20.5 9.82841 20.5 9Z" fill="#C6D300"/>
<path fill-rule="evenodd" clip-rule="evenodd" d="M4 0C1.79086 0 0 1.79086 0 4V28C0 30.2091 1.79086 32 4 32H28C30.2091 32 32 30.2091 32 28V4C32 1.79086 30.2091 0 28 0H4ZM22 5.5C20.067 5.5 18.5 7.067 18.5 9C18.5 10.933 20.067 12.5 22 12.5C23.933 12.5 25.5 10.933 25.5 9C25.5 7.067 23.933 5.5 22 5.5ZM14.4323 10.0965C14.195 9.98329 13.9228 9.96803 13.6744 10.054L9.67281 11.4396C9.15092 11.6203 8.87434 12.1899 9.05504 12.7117C9.23575 13.2336 9.80531 13.5102 10.3272 13.3295L13.9411 12.0782L17.5737 13.812L13.4039 16.9204C13.1425 17.1152 12.9925 17.4254 13.002 17.7513C13.0115 18.0772 13.1793 18.3781 13.4517 18.5574L18.0617 21.5921L15.2044 25.3987C14.8728 25.8404 14.9621 26.4672 15.4038 26.7988C15.8455 27.1303 16.4724 27.041 16.8039 26.5993L20.2998 21.942C20.4654 21.7213 20.5325 21.442 20.4852 21.1702C20.4379 20.8984 20.2803 20.6582 20.0498 20.5064L15.743 17.6712L20.0977 14.425C20.3786 14.2157 20.5294 13.8745 20.4952 13.5258C20.4611 13.1771 20.2469 12.8717 19.9307 12.7208L14.4323 10.0965ZM26.6847 13.4617C27.0871 13.0835 27.1069 12.4506 26.7287 12.0481C26.3505 11.6457 25.7176 11.6259 25.3151 12.0041L22.8431 14.3269L22.1377 13.9432C21.6525 13.6793 21.0453 13.8588 20.7814 14.3439C20.5175 14.8291 20.697 15.4363 21.1821 15.7002L22.523 16.4294C22.9022 16.6356 23.3709 16.5752 23.6855 16.2797L26.6847 13.4617ZM13.221 20.3774C13.5549 19.9375 13.469 19.3102 13.0292 18.9762C12.5893 18.6423 11.962 18.7282 11.628 19.168L10.269 20.9582L5.51275 23.626C5.03106 23.8962 4.85961 24.5057 5.12979 24.9874C5.39997 25.4691 6.00948 25.6405 6.49116 25.3704L11.4289 22.6008C11.5486 22.5336 11.6531 22.4426 11.7361 22.3333L13.221 20.3774Z" fill="#C6D300"/>
</g>
<defs>
<clipPath id="clip0_587_53464">
<rect width="32" height="32" rx="4" fill="white"/>
</clipPath>
</defs>
</svg>
