<svg width="32" height="32" viewBox="0 0 32 32" fill="none" xmlns="http://www.w3.org/2000/svg">
<rect width="32" height="32" rx="16" fill="#191937"/>
<path d="M10.2163 18.6434C10.2163 19.8059 9.2776 20.7454 8.11611 20.7454C6.95461 20.7454 6.01587 19.8059 6.01587 18.6434C6.01587 17.481 6.95461 16.5415 8.11611 16.5415H10.2163V18.6434ZM11.2665 18.6434C11.2665 17.481 12.2052 16.5415 13.3667 16.5415C14.5282 16.5415 15.4669 17.481 15.4669 18.6434V23.8982C15.4669 25.0607 14.5282 26.0002 13.3667 26.0002C12.2052 26.0002 11.2665 25.0607 11.2665 23.8982V18.6434Z" fill="white"/>
<path d="M13.3667 10.2038C12.2052 10.2038 11.2665 9.26435 11.2665 8.10192C11.2665 6.9395 12.2052 6 13.3667 6C14.5282 6 15.467 6.9395 15.467 8.10192V10.2038H13.3667ZM13.3667 11.2707C14.5282 11.2707 15.467 12.2102 15.467 13.3727C15.467 14.5351 14.5282 15.4746 13.3667 15.4746H8.10024C6.93874 15.4746 6 14.5351 6 13.3727C6 12.2102 6.93874 11.2707 8.10024 11.2707H13.3667Z" fill="white"/>
<path d="M21.7836 13.3727C21.7836 12.2102 22.7223 11.2707 23.8838 11.2707C25.0453 11.2707 25.984 12.2102 25.984 13.3727C25.984 14.5351 25.0453 15.4746 23.8838 15.4746H21.7836V13.3727ZM20.7334 13.3727C20.7334 14.5351 19.7947 15.4746 18.6332 15.4746C17.4717 15.4746 16.533 14.5351 16.533 13.3727V8.10192C16.533 6.9395 17.4717 6 18.6332 6C19.7947 6 20.7334 6.9395 20.7334 8.10192V13.3727Z" fill="white"/>
<path d="M18.6332 21.7963C19.7947 21.7963 20.7334 22.7358 20.7334 23.8982C20.7334 25.0607 19.7947 26.0002 18.6332 26.0002C17.4717 26.0002 16.533 25.0607 16.533 23.8982V21.7963H18.6332ZM18.6332 20.7454C17.4717 20.7454 16.533 19.8059 16.533 18.6434C16.533 17.481 17.4717 16.5415 18.6332 16.5415H23.8997C25.0612 16.5415 25.9999 17.481 25.9999 18.6434C25.9999 19.8059 25.0612 20.7454 23.8997 20.7454H18.6332Z" fill="white"/>
</svg>
