<svg width="32" height="32" viewBox="0 0 32 32" fill="none" xmlns="http://www.w3.org/2000/svg">
<g clip-path="url(#clip0_1_50)">
<path fill-rule="evenodd" clip-rule="evenodd" d="M4 0C1.79086 0 0 1.79086 0 4V28C0 30.2091 1.79086 32 4 32H28C30.2091 32 32 30.2091 32 28V4C32 1.79086 30.2091 0 28 0H4ZM5 16C5 17.8857 6.41429 19.3 8.3 19.3C9.79616 19.3 10.9956 18.4097 11.4272 17.1H13.8V23.7C13.8 24.3286 14.2714 24.8 14.9 24.8H20.5728C21.0045 26.1097 22.2038 27 23.7 27C25.5857 27 27 25.5857 27 23.7C27 21.8143 25.5857 20.4 23.7 20.4C22.2038 20.4 21.0044 21.2903 20.5728 22.6H16V17.1H20.5728C21.0044 18.4097 22.2038 19.3 23.7 19.3C25.5857 19.3 27 17.8857 27 16C27 14.1143 25.5857 12.7 23.7 12.7C22.2038 12.7 21.0045 13.5903 20.5728 14.9H16V9.40001H20.5728C21.0045 10.7097 22.2038 11.6 23.7 11.6C25.5857 11.6 27 10.1857 27 8.3C27 6.41429 25.5857 5 23.7 5C22.2038 5 21.0044 5.89031 20.5728 7.2H14.9C14.2714 7.2 13.8 7.67143 13.8 8.3V14.9H11.4272C10.9955 13.5903 9.79615 12.7 8.3 12.7C6.41429 12.7 5 14.1143 5 16ZM22.6 16.0006C22.6003 16.6289 23.0716 17.1 23.7 17.1C24.3286 17.1 24.8 16.6286 24.8 16C24.8 15.3714 24.3286 14.9 23.7 14.9C23.0714 14.9 22.6 15.3714 22.6 16C22.6 16.0002 22.6 16.0004 22.6 16.0006ZM7.2 16C7.2 15.3714 7.67143 14.9 8.3 14.9C8.92857 14.9 9.4 15.3714 9.4 16C9.4 16.6286 8.92857 17.1 8.3 17.1C7.67143 17.1 7.2 16.6286 7.2 16ZM22.6 8.3V8.29845C22.6008 7.67066 23.0719 7.2 23.7 7.2C24.3286 7.2 24.8 7.67143 24.8 8.3C24.8 8.92857 24.3286 9.4 23.7 9.4C23.0719 9.4 22.6008 8.92935 22.6 8.30155L22.6 8.3ZM22.6 23.7V23.6985C22.6008 23.0707 23.0719 22.6 23.7 22.6C24.3286 22.6 24.8 23.0714 24.8 23.7C24.8 24.3286 24.3286 24.8 23.7 24.8C23.0719 24.8 22.6008 24.3293 22.6 23.7015L22.6 23.7Z" fill="#C6D300"/>
</g>
<defs>
<clipPath id="clip0_1_50">
<rect width="32" height="32" fill="white"/>
</clipPath>
</defs>
</svg>
