<svg width="32" height="32" viewBox="0 0 32 32" fill="none" xmlns="http://www.w3.org/2000/svg">
<path d="M8.3 19.3C6.41429 19.3 5 17.8857 5 16C5 14.1143 6.41429 12.7 8.3 12.7C10.1857 12.7 11.6 14.1143 11.6 16C11.6 17.8857 10.1857 19.3 8.3 19.3ZM8.3 14.9C7.67143 14.9 7.2 15.3714 7.2 16C7.2 16.6286 7.67143 17.1 8.3 17.1C8.92857 17.1 9.4 16.6286 9.4 16C9.4 15.3714 8.92857 14.9 8.3 14.9ZM23.7 11.6C21.8143 11.6 20.4 10.1857 20.4 8.3C20.4 6.41429 21.8143 5 23.7 5C25.5857 5 27 6.41429 27 8.3C27 10.1857 25.5857 11.6 23.7 11.6ZM23.7 7.2C23.0714 7.2 22.6 7.67143 22.6 8.3C22.6 8.92857 23.0714 9.4 23.7 9.4C24.3286 9.4 24.8 8.92857 24.8 8.3C24.8 7.67143 24.3286 7.2 23.7 7.2ZM23.7 19.3C21.8143 19.3 20.4 17.8857 20.4 16C20.4 14.1143 21.8143 12.7 23.7 12.7C25.5857 12.7 27 14.1143 27 16C27 17.8857 25.5857 19.3 23.7 19.3ZM23.7 14.9C23.0714 14.9 22.6 15.3714 22.6 16C22.6 16.6286 23.0714 17.1 23.7 17.1C24.3286 17.1 24.8 16.6286 24.8 16C24.8 15.3714 24.3286 14.9 23.7 14.9ZM23.7 27C21.8143 27 20.4 25.5857 20.4 23.7C20.4 21.8143 21.8143 20.4 23.7 20.4C25.5857 20.4 27 21.8143 27 23.7C27 25.5857 25.5857 27 23.7 27ZM23.7 22.6C23.0714 22.6 22.6 23.0714 22.6 23.7C22.6 24.3286 23.0714 24.8 23.7 24.8C24.3286 24.8 24.8 24.3286 24.8 23.7C24.8 23.0714 24.3286 22.6 23.7 22.6Z" fill="#C6D300"/>
<path d="M21.5 24.8H14.9C14.2714 24.8 13.8 24.3286 13.8 23.7V8.3C13.8 7.67143 14.2714 7.2 14.9 7.2H21.5C22.1286 7.2 22.6 7.67143 22.6 8.3C22.6 8.92857 22.1286 9.4 21.5 9.4H16V22.6H21.5C22.1286 22.6 22.6 23.0714 22.6 23.7C22.6 24.3286 22.1286 24.8 21.5 24.8Z" fill="#C6D300"/>
<path d="M21.5 17.1H10.5C9.87143 17.1 9.4 16.6286 9.4 16C9.4 15.3714 9.87143 14.9 10.5 14.9H21.5C22.1286 14.9 22.6 15.3714 22.6 16C22.6 16.6286 22.1286 17.1 21.5 17.1Z" fill="#C6D300"/>
</svg>
