<svg xmlns="http://www.w3.org/2000/svg" version="1.1" xmlns:xlink="http://www.w3.org/1999/xlink" width="32" height="32" x="0" y="0" viewBox="0 0 32 32" style="enable-background:new 0 0 32 32" xml:space="preserve" class=""><g transform="matrix(1.4999999999999984,0,0,1.4999999999999984,-5.99999999999997,-5.99999999999997)"><circle cx="12" cy="12" r="12" fill="#f3ff36" opacity="0" data-original="#2f80ed" class=""></circle><path fill="#f3ff36" d="M7.1 14.1C5.9 14.1 5 13.2 5 12s.9-2.1 2.1-2.1 2.1.9 2.1 2.1-.9 2.1-2.1 2.1zm0-2.8c-.4 0-.7.3-.7.7s.3.7.7.7.7-.3.7-.7-.3-.7-.7-.7zM16.9 9.2c-1.2 0-2.1-.9-2.1-2.1S15.7 5 16.9 5s2.1.9 2.1 2.1-.9 2.1-2.1 2.1zm0-2.8c-.4 0-.7.3-.7.7s.3.7.7.7.7-.3.7-.7-.3-.7-.7-.7zM16.9 14.1c-1.2 0-2.1-.9-2.1-2.1s.9-2.1 2.1-2.1 2.1.9 2.1 2.1-.9 2.1-2.1 2.1zm0-2.8c-.4 0-.7.3-.7.7s.3.7.7.7.7-.3.7-.7-.3-.7-.7-.7zM16.9 19c-1.2 0-2.1-.9-2.1-2.1s.9-2.1 2.1-2.1 2.1.9 2.1 2.1-.9 2.1-2.1 2.1zm0-2.8c-.4 0-.7.3-.7.7s.3.7.7.7.7-.3.7-.7-.3-.7-.7-.7z" opacity="1" data-original="#ffffff" class=""></path><path fill="#f3ff36" d="M15.5 17.6h-4.2c-.4 0-.7-.3-.7-.7V7.1c0-.4.3-.7.7-.7h4.2c.4 0 .7.3.7.7s-.3.7-.7.7H12v8.4h3.5c.4 0 .7.3.7.7s-.3.7-.7.7z" opacity="1" data-original="#ffffff" class=""></path><path fill="#f3ff36" d="M15.5 12.7h-7c-.4 0-.7-.3-.7-.7s.3-.7.7-.7h7c.4 0 .7.3.7.7s-.3.7-.7.7z" opacity="1" data-original="#ffffff" class=""></path></g></svg>