<svg width="32" height="32" viewBox="0 0 32 32" fill="none" xmlns="http://www.w3.org/2000/svg">
<path fill-rule="evenodd" clip-rule="evenodd" d="M16 7C12.134 7 9 10.134 9 14C9 16.9132 10.7799 19.413 13.3149 20.4668H18.6851C21.2201 19.413 23 16.9132 23 14C23 10.134 19.866 7 16 7ZM17.791 22.4668H14.209L14.4201 25H17.5799L17.791 22.4668ZM12.1756 22.1491C9.11862 20.7121 7 17.6045 7 14C7 9.02942 11.0294 5 16 5C20.9706 5 25 9.02942 25 14C25 17.6045 22.8814 20.7121 19.8244 22.1491L19.5347 25.6246C19.4699 26.402 18.82 27 18.0399 27H13.96C13.1798 27 12.53 26.4019 12.4653 25.6246L12.1756 22.1491ZM13 11.5C13.5523 11.5 14 11.9477 14 12.5V13.882L15.5528 13.1056C15.8343 12.9648 16.1657 12.9648 16.4472 13.1056L18 13.882V12.5C18 11.9477 18.4477 11.5 19 11.5C19.5523 11.5 20 11.9477 20 12.5V15.5C20 15.8466 19.8205 16.1684 19.5257 16.3507C19.2309 16.5329 18.8628 16.5494 18.5528 16.3944L16 15.118L13.4472 16.3944C13.1372 16.5494 12.7691 16.5329 12.4743 16.3507C12.1795 16.1684 12 15.8466 12 15.5V12.5C12 11.9477 12.4477 11.5 13 11.5Z" fill="#C6D300"/>
</svg>
