<svg width="32" height="32" viewBox="0 0 32 32" fill="none" xmlns="http://www.w3.org/2000/svg">
<g clip-path="url(#clip0_587_53437)">
<path fill-rule="evenodd" clip-rule="evenodd" d="M9 14C9 10.134 12.134 7 16 7C19.866 7 23 10.134 23 14C23 16.9132 21.2201 19.413 18.6851 20.4668H13.3149C10.7799 19.413 9 16.9132 9 14ZM14 12.5C14 11.9477 13.5523 11.5 13 11.5C12.4477 11.5 12 11.9477 12 12.5V15.5C12 15.8466 12.1795 16.1684 12.4743 16.3507C12.7691 16.5329 13.1372 16.5494 13.4472 16.3944L16 15.118L18.5528 16.3944C18.8628 16.5494 19.2309 16.5329 19.5257 16.3507C19.8205 16.1684 20 15.8466 20 15.5V12.5C20 11.9477 19.5523 11.5 19 11.5C18.4477 11.5 18 11.9477 18 12.5V13.882L16.4472 13.1056C16.1657 12.9648 15.8343 12.9648 15.5528 13.1056L14 13.882V12.5Z" fill="#C6D300"/>
<path d="M14.4201 25L14.209 22.4668H17.791L17.5799 25H14.4201Z" fill="#C6D300"/>
<path fill-rule="evenodd" clip-rule="evenodd" d="M4 0C1.79086 0 0 1.79086 0 4V28C0 30.2091 1.79086 32 4 32H28C30.2091 32 32 30.2091 32 28V4C32 1.79086 30.2091 0 28 0H4ZM7 14C7 17.6045 9.11862 20.7121 12.1756 22.1491L12.4653 25.6246C12.53 26.4019 13.1798 27 13.96 27H18.0399C18.82 27 19.4699 26.402 19.5347 25.6246L19.8244 22.1491C22.8814 20.7121 25 17.6045 25 14C25 9.02942 20.9706 5 16 5C11.0294 5 7 9.02942 7 14Z" fill="#C6D300"/>
</g>
<defs>
<clipPath id="clip0_587_53437">
<rect width="32" height="32" rx="4" fill="white"/>
</clipPath>
</defs>
</svg>
