<svg width="32" height="32" viewBox="0 0 32 32" fill="none" xmlns="http://www.w3.org/2000/svg">
<path fill-rule="evenodd" clip-rule="evenodd" d="M6.91188 5.67197C7.8815 5.24103 9.15094 5 10.5 5C11.8491 5 13.1185 5.24103 14.0881 5.67198C14.5717 5.88689 15.0249 6.16869 15.3708 6.53213C15.7215 6.90072 16 7.39848 16 8V14C16 14.6015 15.7215 15.0993 15.3708 15.4679C15.0249 15.8313 14.5717 16.1131 14.0881 16.328C13.1185 16.759 11.8491 17 10.5 17C9.15093 17 7.8815 16.759 6.91188 16.328C6.42833 16.1131 5.97511 15.8313 5.62924 15.4679C5.27846 15.0993 5 14.6015 5 14V8C5 7.39848 5.27846 6.90072 5.62924 6.53212C5.97511 6.16869 6.42833 5.88688 6.91188 5.67197ZM7.00758 8C7.0183 7.98147 7.03906 7.95184 7.07803 7.91089C7.18758 7.79578 7.39337 7.64662 7.72416 7.4996C8.38322 7.20668 9.36378 7 10.5 7C11.6362 7 12.6168 7.20668 13.2758 7.4996C13.6066 7.64662 13.8124 7.79578 13.922 7.91089C13.9609 7.95184 13.9817 7.98147 13.9924 8C13.9817 8.01852 13.9609 8.04816 13.922 8.0891C13.8124 8.20421 13.6066 8.35338 13.2758 8.5004C12.6168 8.79331 11.6362 9 10.5 9C9.36379 9 8.38322 8.79331 7.72416 8.5004C7.39337 8.35338 7.18758 8.20421 7.07803 8.0891C7.03906 8.04816 7.0183 8.01852 7.00758 8ZM10.5 11C11.8086 11 13.0422 10.7732 14 10.3663V10.9854C13.9933 11.0003 13.9737 11.0348 13.922 11.0891C13.8124 11.2042 13.6066 11.3534 13.2758 11.5004C12.6168 11.7933 11.6362 12 10.5 12C9.36379 12 8.38322 11.7933 7.72416 11.5004C7.39337 11.3534 7.18758 11.2042 7.07803 11.0891C7.02631 11.0348 7.00666 11.0003 7 10.9854V10.3663C7.95778 10.7732 9.19143 11 10.5 11ZM7 13.3663V13.9854C7.00666 14.0003 7.02631 14.0348 7.07803 14.0891C7.18758 14.2042 7.39337 14.3534 7.72416 14.5004C8.38322 14.7933 9.36379 15 10.5 15C11.6362 15 12.6168 14.7933 13.2758 14.5004C13.6066 14.3534 13.8124 14.2042 13.922 14.0891C13.9737 14.0348 13.9933 14.0003 14 13.9854V13.3663C13.0422 13.7732 11.8086 14 10.5 14C9.19143 14 7.95778 13.7732 7 13.3663Z" fill="#C6D300"/>
<path d="M20 6C19.4477 6 19 6.44772 19 7C19 7.55228 19.4477 8 20 8H23C23.5523 8 24 8.44772 24 9V12C24 12.5523 24.4477 13 25 13C25.5523 13 26 12.5523 26 12V9C26 7.34314 24.6568 6 23 6H20Z" fill="#C6D300"/>
<path d="M7 19C7.55228 19 8 19.4477 8 20V23C8 23.5523 8.44772 24 9 24H12C12.5523 24 13 24.4477 13 25C13 25.5523 12.5523 26 12 26H9C7.34314 26 6 24.6568 6 23V20C6 19.4477 6.44772 19 7 19Z" fill="#C6D300"/>
<path fill-rule="evenodd" clip-rule="evenodd" d="M22.5 25V24H26C26.5523 24 27 23.5523 27 23V17C27 16.4477 26.5523 16 26 16H17C16.4477 16 16 16.4477 16 17V23C16 23.5523 16.4477 24 17 24H20.5V25H18.5C17.9477 25 17.5 25.4477 17.5 26C17.5 26.5523 17.9477 27 18.5 27H24.5C25.0523 27 25.5 26.5523 25.5 26C25.5 25.4477 25.0523 25 24.5 25H22.5ZM25 22V18H18V22H25Z" fill="#C6D300"/>
</svg>
