<svg width="32" height="32" viewBox="0 0 32 32" fill="none" xmlns="http://www.w3.org/2000/svg">
<g clip-path="url(#clip0_587_53439)">
<path d="M7.07803 7.91089C7.03906 7.95184 7.0183 7.98147 7.00758 8C7.0183 8.01852 7.03906 8.04816 7.07803 8.0891C7.18758 8.20421 7.39337 8.35338 7.72416 8.5004C8.38322 8.79331 9.36379 9 10.5 9C11.6362 9 12.6168 8.79331 13.2758 8.5004C13.6066 8.35338 13.8124 8.20421 13.922 8.0891C13.9609 8.04816 13.9817 8.01852 13.9924 8C13.9817 7.98147 13.9609 7.95184 13.922 7.91089C13.8124 7.79578 13.6066 7.64662 13.2758 7.4996C12.6168 7.20668 11.6362 7 10.5 7C9.36378 7 8.38322 7.20668 7.72416 7.4996C7.39337 7.64662 7.18758 7.79578 7.07803 7.91089Z" fill="#C6D300"/>
<path d="M14 10.3663C13.0422 10.7732 11.8086 11 10.5 11C9.19143 11 7.95778 10.7732 7 10.3663V10.9854C7.00666 11.0003 7.02631 11.0348 7.07803 11.0891C7.18758 11.2042 7.39337 11.3534 7.72416 11.5004C8.38322 11.7933 9.36379 12 10.5 12C11.6362 12 12.6168 11.7933 13.2758 11.5004C13.6066 11.3534 13.8124 11.2042 13.922 11.0891C13.9737 11.0348 13.9933 11.0003 14 10.9854V10.3663Z" fill="#C6D300"/>
<path d="M7 13.9854V13.3663C7.95778 13.7732 9.19143 14 10.5 14C11.8086 14 13.0422 13.7732 14 13.3663V13.9854C13.9933 14.0003 13.9737 14.0348 13.922 14.0891C13.8124 14.2042 13.6066 14.3534 13.2758 14.5004C12.6168 14.7933 11.6362 15 10.5 15C9.36379 15 8.38322 14.7933 7.72416 14.5004C7.39337 14.3534 7.18758 14.2042 7.07803 14.0891C7.02631 14.0348 7.00666 14.0003 7 13.9854Z" fill="#C6D300"/>
<path d="M18 18H25V22H18V18Z" fill="#C6D300"/>
<path fill-rule="evenodd" clip-rule="evenodd" d="M4 0C1.79086 0 0 1.79086 0 4V28C0 30.2091 1.79086 32 4 32H28C30.2091 32 32 30.2091 32 28V4C32 1.79086 30.2091 0 28 0H4ZM10.5 5C9.15094 5 7.8815 5.24103 6.91188 5.67197C6.42833 5.88689 5.97511 6.16869 5.62924 6.53212C5.27846 6.90072 5 7.39848 5 8V14C5 14.6015 5.27846 15.0993 5.62924 15.4679C5.97511 15.8313 6.42833 16.1131 6.91188 16.328C7.8815 16.759 9.15093 17 10.5 17C11.8491 17 13.1185 16.759 14.0881 16.328C14.5717 16.1131 15.0249 15.8313 15.3708 15.4679C15.7215 15.0993 16 14.6015 16 14V8C16 7.39848 15.7215 6.90072 15.3708 6.53213C15.0249 6.16869 14.5717 5.88689 14.0881 5.67198C13.1185 5.24103 11.8491 5 10.5 5ZM19 7C19 6.44772 19.4477 6 20 6H23C24.6568 6 26 7.34314 26 9V12C26 12.5523 25.5523 13 25 13C24.4477 13 24 12.5523 24 12V9C24 8.44772 23.5523 8 23 8H20C19.4477 8 19 7.55228 19 7ZM7 19C7.55228 19 8 19.4477 8 20V23C8 23.5523 8.44772 24 9 24H12C12.5523 24 13 24.4477 13 25C13 25.5523 12.5523 26 12 26H9C7.34314 26 6 24.6568 6 23V20C6 19.4477 6.44772 19 7 19ZM22.5 24V25H24.5C25.0523 25 25.5 25.4477 25.5 26C25.5 26.5523 25.0523 27 24.5 27H18.5C17.9477 27 17.5 26.5523 17.5 26C17.5 25.4477 17.9477 25 18.5 25H20.5V24H17C16.4477 24 16 23.5523 16 23V17C16 16.4477 16.4477 16 17 16H26C26.5523 16 27 16.4477 27 17V23C27 23.5523 26.5523 24 26 24H22.5Z" fill="#C6D300"/>
</g>
<defs>
<clipPath id="clip0_587_53439">
<rect width="32" height="32" rx="4" fill="white"/>
</clipPath>
</defs>
</svg>
