<svg width="32" height="32" viewBox="0 0 32 32" fill="none" xmlns="http://www.w3.org/2000/svg">
<path fill-rule="evenodd" clip-rule="evenodd" d="M11.5 6C11.5 5.44772 11.9477 5 12.5 5H15.5C16.0523 5 16.5 5.44772 16.5 6V9C16.5 9.55228 16.0523 10 15.5 10C14.9477 10 14.5 9.55228 14.5 9V8.41421L11.7071 11.2071C11.3166 11.5976 10.6834 11.5976 10.2929 11.2071C9.90237 10.8166 9.90237 10.1834 10.2929 9.79289L13.0858 7H12.5C11.9477 7 11.5 6.55228 11.5 6ZM19 10C19 9.44772 19.4477 9 20 9H24C24.5523 9 25 9.44772 25 10V26C25 26.5523 24.5523 27 24 27H8C7.44772 27 7 26.5523 7 26V22C7 21.4477 7.44772 21 8 21H11V18C11 17.4477 11.4477 17 12 17H15V14C15 13.4477 15.4477 13 16 13H19V10ZM21 11V14C21 14.5523 20.5523 15 20 15H17V18C17 18.5523 16.5523 19 16 19H13V22C13 22.5523 12.5523 23 12 23H9V25H23V11H21Z" fill="#C6D300"/>
</svg>
