<svg width="32" height="32" viewBox="0 0 32 32" fill="none" xmlns="http://www.w3.org/2000/svg">
<g clip-path="url(#clip0_587_53461)">
<path d="M21 14V11H23V25H9V23H12C12.5523 23 13 22.5523 13 22V19H16C16.5523 19 17 18.5523 17 18V15H20C20.5523 15 21 14.5523 21 14Z" fill="#C6D300"/>
<path fill-rule="evenodd" clip-rule="evenodd" d="M4 0C1.79086 0 0 1.79086 0 4V28C0 30.2091 1.79086 32 4 32H28C30.2091 32 32 30.2091 32 28V4C32 1.79086 30.2091 0 28 0H4ZM12.5 5C11.9477 5 11.5 5.44772 11.5 6C11.5 6.55228 11.9477 7 12.5 7H13.0858L10.2929 9.79289C9.90237 10.1834 9.90237 10.8166 10.2929 11.2071C10.6834 11.5976 11.3166 11.5976 11.7071 11.2071L14.5 8.41421V9C14.5 9.55228 14.9477 10 15.5 10C16.0523 10 16.5 9.55228 16.5 9V6C16.5 5.44772 16.0523 5 15.5 5H12.5ZM20 9C19.4477 9 19 9.44772 19 10V13H16C15.4477 13 15 13.4477 15 14V17H12C11.4477 17 11 17.4477 11 18V21H8C7.44772 21 7 21.4477 7 22V26C7 26.5523 7.44772 27 8 27H24C24.5523 27 25 26.5523 25 26V10C25 9.44772 24.5523 9 24 9H20Z" fill="#C6D300"/>
</g>
<defs>
<clipPath id="clip0_587_53461">
<rect width="32" height="32" rx="4" fill="white"/>
</clipPath>
</defs>
</svg>
